<?xml version="1.0" encoding="utf-8"?>
<svg viewBox="199.726 99.0793 116.4049 116.4041" xmlns="http://www.w3.org/2000/svg">
  <g data-paper-data="{&quot;fillRule&quot;:&quot;evenodd&quot;,&quot;fillRuleOriginal&quot;:&quot;evenodd&quot;,&quot;isIcon&quot;:true,&quot;iconStyle&quot;:&quot;standalone&quot;,&quot;selectedEffects&quot;:{&quot;container&quot;:&quot;&quot;,&quot;transformation&quot;:&quot;&quot;,&quot;pattern&quot;:&quot;&quot;},&quot;bounds&quot;:{&quot;x&quot;:216.79747989079328,&quot;y&quot;:115,&quot;width&quot;:116.40504021841343,&quot;height&quot;:116.40404022665851},&quot;iconType&quot;:&quot;icon&quot;,&quot;rawIconId&quot;:&quot;1600857&quot;,&quot;isDetailed&quot;:true,&quot;suitableAsStandaloneIcon&quot;:true}" fill-rule="evenodd" id="element-id-76780" transform="matrix(1, 0, 0, 1, -17.071571350097656, -15.920646667480469)">
    <g data-paper-data="{&quot;isPathIcon&quot;:true}" id="element-id-96673">
      <path d="M332.87152,167.10557c0.002,0.008 0.01,0.013 0.01,0.022l0.321,6.00895c0,0.004 -0.005,0.008 -0.005,0.012c0.001,0.004 0.005,0.007 0.005,0.01c0,0.008 -0.008,0.013 -0.008,0.021c0,0.007 0.008,0.011 0.008,0.019v0.039c0,0.005 -0.004,0.007 -0.005,0.01c0,0.005 0.005,0.008 0.005,0.011l-0.32,5.99395c0,0.006 -0.008,0.013 -0.009,0.019c0,0.004 0.001,0.007 0.003,0.01c0.001,0.003 0.002,0.006 0.002,0.009v0.005l-0.01,0.055l-0.90199,5.91695c-0.001,0.008 -0.011,0.012 -0.013,0.022c0,0.004 0.001,0.007 0.002,0.011c0.001,0.003 0.002,0.007 0.002,0.011l-1.57999,5.82695l-0.007,0.024v0.002l-0.001,0.003c-0.002,0.008 -0.011,0.013 -0.013,0.019c-0.001,0.004 -0.001,0.007 0,0.011c0.001,0.004 0.002,0.007 0,0.011l-2.06598,5.31996l-0.092,0.292c-0.006,0.017 -0.024,0.027 -0.031,0.044c-0.003,0.005 -0.003,0.011 -0.003,0.018c0,0.006 0,0.014 -0.004,0.02l-0.167,0.283l-2.59898,5.09496c-0.003,0.008 -0.012,0.011 -0.016,0.019c-0.003,0.003 0,0.01 -0.003,0.016l-3.25297,5.08096c-0.007,0.01 -0.018,0.013 -0.024,0.022c-0.003,0.005 -0.002,0.012 -0.005,0.016l-3.83297,4.68396c-0.005,0.007 -0.013,0.004 -0.017,0.01c-0.007,0.006 -0.004,0.014 -0.01,0.021l-4.22697,4.22597c-0.008,0.011 -0.024,0.007 -0.035,0.015c-0.011,0.008 -0.008,0.023 -0.02,0.033l-0.037,0.025l-0.012,0.013c-0.005,0.003 -0.012,0.002 -0.016,0.006c-0.005,0.004 -0.005,0.013 -0.01,0.016l-4.66496,3.77097c-0.006,0.005 -0.016,0.004 -0.022,0.008c-0.005,0.005 -0.005,0.013 -0.011,0.018l-4.99396,3.24997c-0.011,0.014 -0.029,0.018 -0.044,0.03l-0.024,0.015c-0.005,0.003 -0.011,0.003 -0.016,0.006c-0.019,0.013 -0.024,0.038 -0.048,0.048l-0.363,0.154l-4.98796,2.56998c-0.009,0.007 -0.02,0.003 -0.03,0.008c-0.005,0.002 -0.006,0.008 -0.011,0.011l-5.55395,2.12298v0.002l-0.099,0.036c-0.017,0.007 -0.033,0.007 -0.05,0.01c-0.007,0.003 -0.008,0.009 -0.015,0.011l-0.087,0.017l-5.72595,1.52599c-0.011,0.003 -0.022,0.003 -0.033,0.005c-0.003,0.002 -0.005,0.003 -0.007,0.005l-5.50795,0.89099l-0.444,0.098c-0.029,0.006 -0.056,0.01 -0.084,0.01h-0.47l-5.54395,0.297c-0.007,0.001 -0.015,0.001 -0.022,0.001c-0.006,0 -0.014,0 -0.022,-0.001l-5.56195,-0.297h-0.47c-0.027,0 -0.054,-0.002 -0.081,-0.008l-0.469,-0.099l-5.46795,-0.89099c-0.002,-0.001 -0.003,-0.003 -0.006,-0.004c-0.011,-0.002 -0.023,-0.002 -0.034,-0.005l-5.74395,-1.52599l-0.088,-0.017c-0.006,-0.002 -0.008,-0.008 -0.014,-0.012c-0.018,-0.003 -0.033,-0.003 -0.051,-0.009l-0.098,-0.037v-0.001l-5.55495,-2.12298c-0.004,-0.003 -0.006,-0.01 -0.011,-0.011c-0.009,-0.005 -0.02,-0.002 -0.03,-0.008l-4.98696,-2.57098l-0.364,-0.154c-0.022,-0.009 -0.027,-0.035 -0.047,-0.048c-0.005,-0.003 -0.012,-0.003 -0.016,-0.006l-0.024,-0.014c-0.014,-0.013 -0.032,-0.016 -0.045,-0.03l-4.99296,-3.25097c-0.007,-0.004 -0.007,-0.012 -0.011,-0.017c-0.007,-0.005 -0.016,-0.003 -0.023,-0.008l-4.64596,-3.75497l-0.046,-0.032c-0.012,-0.008 -0.012,-0.024 -0.023,-0.033c-0.012,-0.01 -0.027,-0.007 -0.039,-0.018l-0.039,-0.039l-4.22697,-4.22697c-0.006,-0.007 -0.003,-0.015 -0.01,-0.021c-0.004,-0.006 -0.012,-0.003 -0.017,-0.009l-3.83297,-4.68496c-0.003,-0.004 -0.002,-0.011 -0.005,-0.015c-0.006,-0.01 -0.017,-0.013 -0.024,-0.023l-3.25297,-5.08096c-0.003,-0.004 0,-0.011 -0.003,-0.016c-0.003,-0.006 -0.013,-0.009 -0.016,-0.017l-2.61998,-5.10196v-0.001l-0.156,-0.292c-0.003,-0.006 -0.002,-0.012 -0.002,-0.018v-0.001c0.001,-0.005 0.001,-0.01 -0.001,-0.015c-0.006,-0.013 -0.02,-0.019 -0.025,-0.035l-0.094,-0.295l-2.04198,-5.31796c-0.001,-0.003 -0.001,-0.006 0,-0.01c0.001,-0.004 0.002,-0.007 0,-0.01c-0.001,-0.007 -0.011,-0.011 -0.013,-0.019l-1.58699,-5.83595c-0.001,-0.004 0,-0.007 0.001,-0.011c0.001,-0.003 0.003,-0.006 0.002,-0.009c-0.002,-0.01 -0.011,-0.015 -0.013,-0.023l-0.92399,-5.93795l-0.01,-0.054v-0.002c0,-0.004 0.001,-0.007 0.003,-0.011c0.001,-0.003 0.002,-0.006 0.002,-0.009c-0.001,-0.008 -0.009,-0.011 -0.009,-0.021l-0.339,-5.99095c0,-0.006 0.005,-0.009 0.005,-0.012c0,-0.005 -0.005,-0.007 -0.005,-0.012v-0.077c0,-0.004 0.005,-0.007 0.005,-0.01c0,-0.006 -0.005,-0.009 -0.005,-0.013l0.339,-5.99395c0,-0.008 0.009,-0.012 0.009,-0.019c0.001,-0.003 0,-0.007 -0.002,-0.01c-0.002,-0.004 -0.003,-0.007 -0.003,-0.012l0.012,-0.07l0.92199,-5.90295c0.002,-0.01 0.011,-0.013 0.013,-0.023c0.001,-0.002 0,-0.006 -0.002,-0.01c-0.001,-0.004 -0.002,-0.008 -0.001,-0.012l1.58699,-5.85595c0.002,-0.006 0.012,-0.009 0.013,-0.016c0.002,-0.004 0.001,-0.008 0,-0.012c-0.001,-0.004 -0.001,-0.007 0,-0.011l2.04198,-5.31596l0.094,-0.297c0.005,-0.015 0.022,-0.021 0.028,-0.034c0.003,-0.006 0.003,-0.014 0.003,-0.021c0,-0.007 0,-0.015 0.004,-0.022l0.149,-0.262v-0.001l2.61998,-5.12096c0.003,-0.006 0.011,-0.008 0.016,-0.014c0.001,-0.003 0.001,-0.006 0.001,-0.01c0,-0.003 -0.001,-0.007 0.002,-0.011l3.25297,-5.07896c0.005,-0.008 0.016,-0.007 0.023,-0.016c0.004,-0.006 0,-0.016 0.006,-0.022l3.83297,-4.68396c0.005,-0.007 0.014,-0.005 0.019,-0.012c0.005,-0.004 0.003,-0.012 0.008,-0.019l4.22697,-4.22797c0.001,-0.002 0.003,-0.002 0.005,-0.002c0.001,-0.001 0,-0.003 0.001,-0.003l0.04,-0.039c0.014,-0.013 0.035,-0.008 0.049,-0.02c0.016,-0.02 0.014,-0.047 0.035,-0.065l4.66496,-3.74797c0.006,-0.007 0.013,-0.004 0.019,-0.007c0.006,-0.005 0.006,-0.014 0.013,-0.019l4.99296,-3.24997c0.01,-0.013 0.026,-0.016 0.039,-0.026l0.03,-0.019c0.004,-0.003 0.009,0 0.014,-0.003c0.019,-0.012 0.025,-0.039 0.048,-0.049l0.363,-0.154l4.98896,-2.57198c0.004,-0.003 0.009,-0.003 0.013,-0.002c0.004,0 0.007,0 0.011,-0.001c0.008,-0.004 0.01,-0.013 0.017,-0.016l5.65595,-2.16298c0.005,-0.002 0.008,-0.001 0.012,0.001c0.004,0 0.007,0.001 0.011,0.001c0.007,-0.004 0.011,-0.013 0.019,-0.016l5.85595,-1.54799c0.003,-0.001 0.007,0 0.01,0.001c0.003,0.001 0.006,0.003 0.01,0.002c0.008,-0.002 0.011,-0.01 0.019,-0.011l5.46195,-0.87199l0.458,-0.113c0.009,-0.003 0.017,0 0.026,0.003c0.007,0.002 0.015,0.005 0.023,0.004c0.017,-0.002 0.027,-0.019 0.046,-0.019h0.47l5.56195,-0.299h0.022c0.005,0 0.007,0.005 0.011,0.005c0.005,0 0.007,-0.005 0.011,-0.005l5.54395,0.299h0.47c0.015,0 0.027,0.015 0.042,0.019c0.008,0 0.014,-0.002 0.021,-0.005c0.009,-0.003 0.017,-0.006 0.027,-0.003l0.478,0.112l5.46495,0.87399c0.008,0.001 0.011,0.011 0.019,0.011c0.004,0.001 0.008,0 0.012,-0.001c0.004,-0.002 0.007,-0.003 0.011,-0.002l5.83595,1.54799c0.008,0.003 0.012,0.012 0.019,0.016c0.003,0 0.006,-0.001 0.009,-0.001c0.004,-0.002 0.008,-0.003 0.012,-0.001l5.65595,2.16298c0.008,0.003 0.01,0.012 0.017,0.016c0.004,0.001 0.008,0.001 0.011,0.001c0.005,-0.001 0.009,-0.001 0.013,0.002l4.98896,2.57198l0.364,0.154c0.02,0.01 0.027,0.037 0.047,0.049c0.005,0.003 0.01,0 0.015,0.003l0.03,0.019c0.011,0.01 0.027,0.013 0.038,0.026l4.99396,3.24997c0.006,0.005 0.006,0.014 0.012,0.019c0.007,0.005 0.015,0.002 0.021,0.007l4.70496,3.80997c0.006,0.005 0.005,0.013 0.011,0.019c0.005,0.007 0.014,0.004 0.021,0.01l4.28496,4.26796c0.006,0.005 0.003,0.014 0.008,0.021c0.006,0.004 0.014,0.004 0.019,0.009l3.83297,4.68396c0.006,0.007 0.002,0.016 0.006,0.022c0.007,0.008 0.018,0.008 0.023,0.016l3.25297,5.07996c0.003,0.006 0,0.014 0.003,0.02c0.005,0.007 0.013,0.007 0.016,0.013l2.75998,5.37996c0.001,0.003 0.001,0.007 0.001,0.012c-0.001,0.005 -0.001,0.008 0,0.012c0.004,0.007 0.013,0.007 0.016,0.015l2.18398,5.65595c0.001,0.004 0,0.007 0,0.011c-0.001,0.004 -0.002,0.008 0,0.011c0.001,0.008 0.011,0.01 0.012,0.018l0.002,0.003l0.009,0.04l1.57699,5.79095c0.001,0.003 0,0.007 -0.002,0.011c-0.001,0.004 -0.002,0.008 -0.001,0.012c0.001,0.01 0.011,0.013 0.013,0.023l0.90099,5.91395l0.01,0.056v0.003c0.001,0.003 -0.001,0.007 -0.002,0.011c-0.001,0.002 -0.003,0.005 -0.003,0.008zM330.11555,179.00947c-0.001,-0.004 -0.003,-0.007 -0.002,-0.01c0,-0.009 0.01,-0.014 0.01,-0.022l0.276,-5.75595c0,-0.009 0.006,-0.015 0.006,-0.023c0,-0.008 0.007,-0.012 0.007,-0.021l-0.277,-5.75595c0,-0.006 -0.009,-0.013 -0.011,-0.019c0,-0.004 0.002,-0.008 0.004,-0.012c0.002,-0.004 0.003,-0.008 0.003,-0.013l-0.91499,-5.67495c-0.001,-0.01 -0.011,-0.013 -0.013,-0.023v-0.001c0,-0.002 0.001,-0.004 0.002,-0.008c0.001,-0.003 0.002,-0.007 0.002,-0.011l-1.50699,-5.57695c-0.002,-0.008 -0.011,-0.009 -0.013,-0.017c-0.002,-0.003 -0.001,-0.006 0,-0.01c0.001,-0.003 0.002,-0.007 0,-0.011l-2.04398,-5.35896c-0.003,-0.008 -0.012,-0.009 -0.015,-0.017c-0.002,-0.003 -0.002,-0.007 -0.001,-0.011c0,-0.005 0,-0.008 -0.001,-0.011l-2.60198,-5.12296c-0.004,-0.008 -0.015,-0.008 -0.018,-0.014c-0.005,-0.008 0,-0.016 -0.005,-0.024l-3.15297,-4.82196c-0.003,-0.006 -0.013,-0.005 -0.016,-0.011c-0.005,-0.006 -0.002,-0.014 -0.006,-0.021l-3.61297,-4.50596c-0.004,-0.006 -0.015,-0.005 -0.02,-0.011c-0.007,-0.006 -0.003,-0.016 -0.01,-0.022l-4.06797,-4.06797c-0.006,-0.007 -0.016,-0.004 -0.022,-0.01c-0.006,-0.005 -0.005,-0.014 -0.011,-0.019l-4.46496,-3.59497c-0.006,-0.003 -0.014,0 -0.019,-0.005c-0.007,-0.004 -0.007,-0.014 -0.013,-0.017l-4.84396,-3.15697c-0.007,-0.003 -0.016,0 -0.023,-0.003c-0.007,-0.005 -0.007,-0.014 -0.015,-0.019l-5.13896,-2.59898c-0.004,-0.003 -0.008,-0.002 -0.012,-0.002c-0.003,0 -0.006,0 -0.01,-0.001c-0.006,-0.003 -0.008,-0.011 -0.016,-0.015l-5.35896,-2.06398c-0.004,-0.001 -0.007,-0.001 -0.011,0c-0.004,0.001 -0.007,0.002 -0.011,0c-0.008,-0.001 -0.009,-0.009 -0.017,-0.012l-5.57995,-1.50899c-0.004,-0.001 -0.008,0.001 -0.011,0.002c-0.003,0.001 -0.007,0.002 -0.01,0.001c-0.009,-0.001 -0.012,-0.011 -0.02,-0.012l-5.67495,-0.91199c-0.005,-0.001 -0.009,0.001 -0.014,0.003c-0.003,0.002 -0.007,0.004 -0.012,0.004c-0.007,-0.002 -0.012,-0.01 -0.02,-0.012l-5.73695,-0.279c-0.008,0 -0.011,0.006 -0.019,0.006c-0.004,0.001 -0.007,-0.001 -0.01,-0.003c-0.003,-0.001 -0.005,-0.003 -0.009,-0.003l-5.75595,0.279c-0.008,0.002 -0.013,0.01 -0.021,0.012c-0.004,0 -0.008,-0.002 -0.011,-0.004c-0.005,-0.002 -0.009,-0.004 -0.014,-0.003l-5.67495,0.91199c-0.008,0.001 -0.011,0.011 -0.021,0.012c-0.003,0.001 -0.006,0 -0.009,-0.001c-0.003,-0.001 -0.007,-0.003 -0.011,-0.002l-5.57995,1.50899c-0.008,0.003 -0.009,0.011 -0.017,0.012c-0.004,0.002 -0.008,0.001 -0.011,0c-0.004,-0.001 -0.008,-0.001 -0.012,0l-5.35796,2.06398c-0.008,0.004 -0.01,0.012 -0.016,0.015c-0.008,0.003 -0.016,0 -0.023,0.003l-5.13796,2.59898c-0.008,0.005 -0.008,0.016 -0.016,0.019c-0.006,0.005 -0.015,0 -0.022,0.005l-4.82196,3.15497c-0.006,0.003 -0.005,0.013 -0.011,0.016c-0.007,0.005 -0.014,0.001 -0.021,0.006l-4.48696,3.59297c-0.006,0.005 -0.005,0.015 -0.011,0.021c-0.006,0.006 -0.016,0.003 -0.022,0.01l-4.06797,4.06797c-0.007,0.006 -0.004,0.016 -0.01,0.022c-0.005,0.006 -0.016,0.005 -0.021,0.013l-3.59097,4.50596c-0.005,0.005 -0.002,0.013 -0.007,0.019c-0.003,0.006 -0.012,0.005 -0.015,0.011l-3.15697,4.82196c-0.003,0.004 -0.002,0.008 -0.002,0.012c0,0.003 0,0.006 -0.001,0.009c-0.005,0.006 -0.016,0.006 -0.019,0.016l-2.63898,5.12096c-0.003,0.005 -0.002,0.01 -0.001,0.015c0,0.004 0.001,0.009 -0.001,0.013c-0.003,0.006 -0.013,0.008 -0.016,0.016l-2.02398,5.35896c-0.002,0.003 -0.001,0.006 0,0.009c0.001,0.004 0.001,0.007 0,0.01c-0.002,0.008 -0.011,0.009 -0.013,0.017l-1.50699,5.57695c0,0.004 0.001,0.007 0.002,0.011c0.001,0.004 0.002,0.007 0.001,0.011c-0.001,0.008 -0.011,0.011 -0.012,0.021l-0.91499,5.67495c-0.001,0.004 0.001,0.009 0.003,0.012c0.001,0.004 0.003,0.008 0.002,0.011c0,0.008 -0.01,0.013 -0.01,0.021l-0.276,5.75595c0,0.009 0.006,0.013 0.006,0.021c0,0.008 -0.006,0.011 -0.006,0.02l0.276,5.75595c0,0.008 0.01,0.013 0.01,0.022c0.001,0.003 0,0.006 -0.002,0.009v0.001c-0.002,0.003 -0.004,0.007 -0.003,0.013l0.91499,5.67395c0.001,0.01 0.009,0.013 0.012,0.023c0.001,0.003 0,0.006 -0.001,0.009c-0.001,0.004 -0.003,0.007 -0.002,0.011l1.50699,5.57795c0.002,0.008 0.011,0.013 0.013,0.019c0.002,0.004 0.001,0.007 0,0.011c0,0.003 -0.001,0.006 0,0.008l2.01498,5.36296c0.003,0.007 0.012,0.011 0.016,0.019c0.001,0.003 0.001,0.007 0,0.011c0,0.004 0,0.008 0.001,0.011l2.63898,5.12096c0.005,0.009 0.014,0.012 0.019,0.022c0.003,0.003 0,0.009 0.003,0.014l3.15697,4.84296c0.005,0.006 0.013,0.009 0.018,0.016c0.003,0.005 0.001,0.011 0.004,0.016l3.59197,4.48496c0.005,0.007 0.014,0.005 0.021,0.01c0.006,0.008 0.003,0.017 0.009,0.024l4.06797,4.06797c0.006,0.006 0.016,0.003 0.022,0.009c0.007,0.007 0.005,0.016 0.011,0.021l4.48796,3.59297c0.006,0.005 0.016,0.003 0.022,0.008c0.005,0.003 0.005,0.011 0.009,0.014l4.82296,3.15497c0.008,0.005 0.017,0.003 0.025,0.008c0.006,0.003 0.006,0.011 0.013,0.015l5.13796,2.61898c0.009,0.005 0.019,0.004 0.029,0.008c0.004,0 0.006,0.008 0.011,0.01l5.35896,2.04298c0.009,0.004 0.019,0.004 0.028,0.007c0.005,0 0.006,0.006 0.011,0.006l5.57995,1.48999c0.011,0.003 0.021,0.003 0.032,0.004c0.003,0.002 0.003,0.003 0.006,0.005l5.67495,0.93399c0.014,0.001 0.028,0.003 0.044,0.003h0.002l5.75595,0.279h0.038l5.73695,-0.279h0.001c0.013,0 0.025,-0.001 0.039,-0.003h0.006l5.67495,-0.93399c0.003,-0.002 0.003,-0.003 0.006,-0.005c0.011,-0.001 0.021,-0.001 0.032,-0.004l5.57895,-1.48999c0.005,0 0.007,-0.006 0.011,-0.006c0.01,-0.003 0.02,-0.003 0.029,-0.007l5.35896,-2.04298c0.005,-0.002 0.006,-0.01 0.011,-0.01c0.01,-0.004 0.019,-0.003 0.029,-0.008l5.13796,-2.61898c0.006,-0.004 0.006,-0.012 0.011,-0.015c0.01,-0.003 0.019,-0.001 0.027,-0.006l4.84396,-3.15697c0.007,-0.003 0.007,-0.011 0.012,-0.016c0.006,-0.004 0.014,-0.003 0.02,-0.006l4.46496,-3.59497c0.007,-0.005 0.005,-0.014 0.011,-0.019c0.007,-0.006 0.016,-0.003 0.023,-0.009l4.06797,-4.06797c0.006,-0.007 0.003,-0.016 0.009,-0.024c0.005,-0.005 0.014,-0.003 0.019,-0.008l3.61197,-4.48696c0.004,-0.003 0.002,-0.01 0.005,-0.013c0.005,-0.01 0.016,-0.011 0.021,-0.019l3.15297,-4.84496c0.003,-0.004 0,-0.012 0.003,-0.019c0.005,-0.006 0.013,-0.009 0.018,-0.017l2.60198,-5.12096c0.002,-0.003 0.001,-0.006 0.001,-0.01c0,-0.004 -0.001,-0.007 0.001,-0.01c0.003,-0.007 0.013,-0.01 0.016,-0.019l2.04298,-5.35896c0.001,-0.003 0,-0.006 0,-0.009c-0.001,-0.003 -0.001,-0.007 0,-0.01c0.002,-0.007 0.011,-0.012 0.013,-0.019l1.50699,-5.57895c0.001,-0.004 -0.001,-0.007 -0.002,-0.011c-0.001,-0.003 -0.002,-0.006 -0.001,-0.009c0.003,-0.01 0.011,-0.013 0.012,-0.022l0.91499,-5.67495c0.001,-0.005 -0.001,-0.009 -0.003,-0.013z" fill="#222223" id="element-id-46619"/>
      <path d="M268.38005,132.90085l-0.218,-1.74599c-0.001,-0.007 0.002,-0.015 0.005,-0.023c0.002,-0.006 0.005,-0.012 0.005,-0.017c0,-0.011 -0.013,-0.021 -0.013,-0.033l0.019,-0.397c0.002,-0.035 0.028,-0.056 0.038,-0.088c0.003,-0.011 0.002,-0.022 0.001,-0.033c-0.001,-0.016 -0.002,-0.03 0.005,-0.045l0.299,-0.573c0.084,-0.166 0.273,-0.219 0.446,-0.178c-0.081,-0.152 -0.081,-0.336 0.048,-0.46l0.474,-0.459c0.027,-0.024 0.066,-0.021 0.099,-0.036c0.032,-0.02 0.049,-0.053 0.086,-0.062l1.17099,-0.278c0.007,-0.002 0.012,0 0.018,0.002c0.006,0.002 0.012,0.004 0.019,0.002c0.013,0 0.021,-0.014 0.033,-0.015l4.08697,-0.218c0.008,-0.002 0.016,-0.002 0.023,-0.002c0.004,0 0.006,0.005 0.011,0.005l0.003,-0.001c0.002,-0.002 0.003,-0.003 0.006,-0.002l4.64596,0.238c0.008,0 0.013,0.008 0.021,0.01c0.008,0 0.014,-0.007 0.022,-0.007l4.60496,0.73399c0.008,0.002 0.011,0.011 0.02,0.013c0.003,0 0.007,-0.001 0.01,-0.002c0.003,-0.001 0.007,-0.002 0.011,-0.001l4.50296,1.21099c0.008,0.002 0.01,0.011 0.018,0.013c0.004,0.001 0.007,0.001 0.012,0c0.004,-0.001 0.008,-0.002 0.011,0l4.36696,1.68599c0.008,0.003 0.009,0.013 0.016,0.016c0.003,0.001 0.007,0.001 0.01,0c0.004,-0.001 0.007,-0.002 0.01,0l4.16897,2.10498c0.007,0.004 0.007,0.013 0.014,0.016c0.008,0.005 0.016,0 0.024,0.005l3.89097,2.52098c0.008,0.005 0.007,0.015 0.015,0.021c0.006,0.003 0.014,0 0.02,0.006l3.17597,2.58098c0.011,0.008 0.008,0.022 0.017,0.031c0.01,0.01 0.026,0.008 0.035,0.019l0.79399,0.93299c0.026,0.028 0.018,0.068 0.034,0.103c0.015,0.035 0.049,0.054 0.055,0.093l0.099,0.63599c0,0.004 -0.001,0.008 -0.004,0.012c-0.002,0.004 -0.004,0.008 -0.003,0.013c0.002,0.009 0.011,0.016 0.011,0.025l0.019,0.69599c0,0.013 -0.012,0.02 -0.014,0.035c0,0.006 0.003,0.011 0.005,0.016c0.003,0.006 0.005,0.012 0.005,0.019l-0.099,0.63499c-0.005,0.035 -0.033,0.052 -0.046,0.084c-0.011,0.025 0,0.051 -0.016,0.075l-0.198,0.298c-0.008,0.011 -0.019,0.016 -0.029,0.026c-0.004,0.006 -0.001,0.014 -0.006,0.019l-1.19099,1.32999c-0.006,0.008 -0.017,0.005 -0.024,0.011c-0.006,0.007 -0.003,0.018 -0.011,0.024l-4.86196,4.28696c-0.001,0.002 -0.003,0.002 -0.005,0.002c-0.001,0.001 -0.001,0.005 -0.003,0.006l-11.43091,9.50592c-0.001,0.002 -0.004,0.002 -0.006,0.002c-0.001,0.003 -0.001,0.005 -0.003,0.006l-1.54799,1.20999c-0.007,0.007 -0.016,0.004 -0.024,0.01c-0.006,0.003 -0.005,0.011 -0.011,0.016l-1.07299,0.67299c-0.01,0.006 -0.021,0.005 -0.031,0.01c-0.006,0.003 -0.008,0.014 -0.016,0.017l-1.64599,0.75399c-0.01,0.005 -0.022,0.005 -0.035,0.008c-0.005,0.002 -0.006,0.008 -0.011,0.01l-1.38899,0.436c-0.02,0.007 -0.035,0.007 -0.054,0.01c-0.005,0 -0.007,0.005 -0.012,0.006l-1.44799,0.199c-0.019,0.001 -0.036,0.003 -0.054,0.003c-0.023,0 -0.046,-0.003 -0.07,-0.006l-1.42899,-0.258c-0.011,-0.001 -0.014,-0.012 -0.025,-0.016c-0.027,-0.006 -0.054,-0.006 -0.079,-0.019l-1.34999,-0.65499c-0.019,-0.012 -0.024,-0.035 -0.041,-0.048c-0.021,-0.013 -0.045,-0.008 -0.062,-0.025l-1.01499,-0.99299c-0.008,-0.008 -0.005,-0.019 -0.011,-0.028c-0.006,-0.007 -0.017,-0.004 -0.024,-0.01l-0.89199,-1.13199c-0.007,-0.006 -0.002,-0.016 -0.007,-0.024c-0.009,-0.011 -0.022,-0.017 -0.03,-0.03l-0.90999,-1.64199c-0.001,-0.003 -0.001,-0.006 -0.001,-0.01c0.001,-0.004 0.001,-0.008 -0.002,-0.012c-0.004,-0.011 -0.014,-0.014 -0.019,-0.024l-0.455,-1.15099c-0.002,-0.004 -0.001,-0.007 0,-0.011c0,-0.004 0.001,-0.007 0,-0.011c-0.004,-0.008 -0.012,-0.013 -0.015,-0.021l-0.517,-1.88598v-0.002v-0.003l-0.002,-0.003l-3.64997,-14.45288v-0.003c0,-0.003 -0.004,-0.003 -0.004,-0.006l-1.41099,-6.29095c-0.001,-0.004 0,-0.007 0.001,-0.01c0.002,-0.004 0.003,-0.007 0.002,-0.011c-0.002,-0.006 -0.008,-0.011 -0.009,-0.019zM285.46491,157.79665l1.05699,-0.61599l11.31291,-9.93092l2.41898,-2.47698l0.036,-0.246l-0.85899,-1.15099l-1.75299,-1.34599l-3.40597,-2.20798l-3.58497,-1.82098l-3.78397,-1.43799l-3.88197,-1.05899l-3.97397,-0.63099l-4.02197,-0.214l-2.22198,0.078l-1.37199,0.389l-0.087,0.219l0.497,3.44997l3.36297,14.64288l0.413,1.19299l0.468,1.12399l0.75099,0.95699l0.78099,0.89599l0.97199,0.72999l1.06399,0.532l1.21499,0.203l1.20699,-0.019l1.18399,-0.189l1.11799,-0.409l1.08099,-0.65599c0.002,-0.002 0.003,0 0.005,-0.002z" fill="#c70f0f" id="element-id-36019"/>
      <path d="M267.97906,156.53366l-7.79694,-22.70081v-0.005l-0.002,-0.003c-0.01,-0.028 -0.004,-0.056 0.002,-0.084c0.004,-0.016 0.007,-0.031 0.008,-0.048c0.001,-0.017 0,-0.035 -0.001,-0.053c-0.002,-0.039 -0.004,-0.078 0.015,-0.113c0.025,-0.051 0.081,-0.075 0.125,-0.11c0.035,-0.03 0.054,-0.073 0.099,-0.089l0.001,0.001l0.002,-0.001c0.001,0 0.001,-0.001 0.003,-0.001l3.16797,-1.02899l0.008,-0.003c0.033,-0.011 0.065,-0.004 0.098,0.004c0.017,0.003 0.034,0.007 0.051,0.008c0.017,0.002 0.034,0.001 0.051,0.001h0.003c0.034,-0.001 0.068,-0.003 0.097,0.012c0.041,0.019 0.057,0.065 0.089,0.098c0.038,0.04 0.089,0.069 0.109,0.124l7.85794,22.66481v0.003l0.002,0.002c0.012,0.036 0.005,0.071 -0.003,0.106c-0.003,0.016 -0.007,0.033 -0.008,0.049c-0.002,0.016 -0.001,0.033 0,0.05v0.003c0.002,0.032 0.003,0.065 -0.011,0.093c-0.026,0.05 -0.081,0.075 -0.124,0.11c-0.035,0.03 -0.054,0.073 -0.1,0.09c-0.002,0 -0.003,0 -0.003,0.002h-0.002l-3.23397,1.07199c-0.042,0.014 -0.084,0.02 -0.126,0.02c-0.082,0 -0.163,-0.027 -0.23,-0.074c-0.013,-0.008 -0.017,-0.027 -0.03,-0.038c-0.048,-0.045 -0.094,-0.091 -0.116,-0.156l-0.002,-0.003z" fill="#222223" id="element-id-48060"/>
      <path d="M231.13436,164.72559l0.257,0.595c0.065,0.153 0.211,0.24 0.364,0.24c0.025,0 0.047,-0.011 0.073,-0.014c-0.08,0.149 -0.083,0.329 0.043,0.456l0.478,0.474c0.02,0.023 0.05,0.016 0.074,0.032c0.024,0.016 0.03,0.045 0.056,0.056l0.34,0.138c0.02,0.008 0.041,0.008 0.062,0.012c0.006,0.002 0.009,0.01 0.017,0.012l1.74699,0.317c0.011,0.002 0.02,0.002 0.031,0.002c0.002,0.001 0.002,0.003 0.004,0.003l6.42895,0.61599h0.011v0.002l14.84888,0.99199h0.011l1.96298,0.079h0.016c0.006,0 0.012,0 0.019,-0.001l1.24899,-0.059h0.003c0.02,-0.002 0.037,-0.003 0.054,-0.006l1.82598,-0.359c0.005,-0.002 0.007,-0.008 0.013,-0.008c0.016,-0.003 0.032,-0.003 0.046,-0.01l1.37099,-0.495c0.006,-0.002 0.007,-0.01 0.014,-0.013c0.014,-0.006 0.028,-0.003 0.039,-0.009l1.24999,-0.67699c0.021,-0.009 0.022,-0.033 0.038,-0.046c0.016,-0.012 0.04,-0.009 0.056,-0.025l1.03199,-1.05099c0.011,-0.01 0.006,-0.027 0.016,-0.037c0.016,-0.02 0.038,-0.032 0.051,-0.054l0.69499,-1.30999c0.005,-0.01 0.004,-0.02 0.003,-0.03c0,-0.008 -0.001,-0.017 0.002,-0.025c0.009,-0.023 0.032,-0.035 0.035,-0.059l0.257,-1.42899c0.002,-0.008 -0.001,-0.015 -0.004,-0.021c-0.003,-0.006 -0.005,-0.011 -0.004,-0.016c0.002,-0.011 0.014,-0.022 0.014,-0.033v-1.42699c0,-0.008 -0.008,-0.013 -0.008,-0.021c0,-0.004 0.001,-0.008 0.004,-0.011c0.002,-0.004 0.004,-0.007 0.003,-0.011l-0.199,-1.84898c-0.001,-0.009 -0.012,-0.015 -0.016,-0.027c0,-0.005 0.001,-0.009 0.003,-0.014c0.002,-0.006 0.004,-0.011 0.002,-0.017l-0.316,-1.20999c-0.001,-0.008 -0.013,-0.011 -0.014,-0.021c-0.002,-0.003 -0.001,-0.006 0,-0.009c0.001,-0.004 0.001,-0.008 0,-0.011l-0.69599,-1.82598l-0.001,-0.002v-0.003l-5.47995,-13.83489c-0.001,-0.003 -0.003,-0.003 -0.005,-0.006v-0.007l-2.55798,-5.93195c-0.003,-0.009 -0.012,-0.009 -0.017,-0.017c-0.001,-0.004 -0.001,-0.008 -0.001,-0.012c0,-0.005 0,-0.009 -0.002,-0.014l-0.89299,-1.54799c-0.007,-0.012 -0.023,-0.012 -0.031,-0.024c-0.008,-0.012 -0.003,-0.027 -0.013,-0.036l-0.238,-0.278c-0.019,-0.022 -0.049,-0.021 -0.072,-0.035c-0.022,-0.019 -0.027,-0.048 -0.052,-0.06l-0.595,-0.299c-0.147,-0.076 -0.305,-0.02 -0.426,0.086c-0.027,-0.176 -0.148,-0.329 -0.333,-0.345l-0.67399,-0.06c-0.022,-0.003 -0.038,0.006 -0.055,0.014c-0.013,0.006 -0.025,0.013 -0.04,0.015c-0.013,0.002 -0.026,0 -0.039,-0.003c-0.018,-0.003 -0.036,-0.006 -0.053,0.003l-1.11299,0.457c-0.013,0.006 -0.016,0.021 -0.027,0.029c-0.006,0.002 -0.012,0.002 -0.017,0.002c-0.007,-0.001 -0.014,-0.001 -0.02,0.004l-3.43197,2.20198c-0.008,0.007 -0.007,0.016 -0.015,0.021c-0.006,0.005 -0.017,0.001 -0.024,0.008l-3.63097,2.95498c-0.006,0.006 -0.005,0.016 -0.011,0.02c-0.005,0.005 -0.014,0.004 -0.021,0.008l-3.29297,3.31597c-0.005,0.004 -0.003,0.012 -0.008,0.019c-0.005,0.006 -0.014,0.005 -0.019,0.009l-2.93998,3.61297c-0.005,0.006 -0.002,0.015 -0.007,0.022c-0.005,0.006 -0.014,0.006 -0.019,0.013l-2.53998,3.90997c-0.005,0.008 0,0.016 -0.005,0.024c-0.003,0.008 -0.013,0.008 -0.016,0.014l-2.10198,4.14897c-0.002,0.004 -0.002,0.007 -0.001,0.01c0,0.004 0.001,0.007 -0.001,0.009c-0.003,0.007 -0.013,0.01 -0.016,0.016l-1.68599,4.36696c-0.002,0.005 -0.001,0.009 0,0.013c0.001,0.005 0.001,0.008 0,0.012c-0.002,0.008 -0.011,0.01 -0.013,0.018l-1.05099,3.92997c-0.002,0.007 0,0.013 0.002,0.02v0.001c0.002,0.007 0.004,0.013 0.003,0.02c-0.002,0.013 -0.016,0.021 -0.018,0.033l-0.081,1.19099c-0.001,0.019 0.008,0.035 0.016,0.051c0.006,0.011 0.012,0.023 0.015,0.036c0.004,0.014 0.003,0.027 0.002,0.042c-0.002,0.016 -0.003,0.032 0.004,0.049zM238.4673,161.32462v-0.002l1.33599,-3.79297l1.84898,-3.59997l2.19998,-3.38197l2.51698,-3.14197l2.84198,-2.84198l3.14897,-2.54098l1.83398,-1.25399l1.34999,-0.478l0.231,0.121l1.62199,3.06897l5.93295,13.80389l0.272,1.21799c0,0.002 0.001,0.002 0.001,0.003v0.002l0.288,1.22399l0.019,1.20499l-0.167,1.18499l-0.338,1.13499l-0.388,0.67199l-0.001,0.003c-0.002,0.002 0,0.003 -0.002,0.005l-0.022,0.036c-0.002,0.005 -0.002,0.009 -0.002,0.014c0,0.005 0,0.009 -0.001,0.013c-0.003,0.003 -0.003,0.01 -0.006,0.013c-0.02,0.029 -0.053,0.04 -0.064,0.073l-0.033,0.1l-0.075,0.149l-0.84599,0.86599l-0.96999,0.70599l-1.09399,0.453l-1.13899,0.419l-1.22399,0.113l-1.25299,0.02l-14.96988,-1.32699l-3.43097,-0.595l-0.184,-0.15l0.033,-1.41099z" fill="#c70f0f" id="element-id-83938"/>
      <path d="M319.74063,168.51856c0,-0.008 -0.01,-0.014 -0.01,-0.02c0,-0.005 0.001,-0.009 0.003,-0.013c0.002,-0.004 0.003,-0.007 0.002,-0.011l-0.73199,-4.60296c-0.001,-0.01 -0.011,-0.013 -0.013,-0.019c0,-0.005 0.001,-0.009 0.002,-0.013c0.001,-0.004 0.002,-0.008 0.002,-0.011l-1.21299,-4.48596c-0.002,-0.008 -0.012,-0.009 -0.013,-0.017c-0.002,-0.004 -0.001,-0.008 0,-0.011c0.001,-0.004 0.001,-0.008 0,-0.013l-1.48999,-3.82997c-0.004,-0.013 -0.02,-0.016 -0.025,-0.029c-0.006,-0.011 0,-0.025 -0.006,-0.034l-0.61499,-1.01199c-0.019,-0.033 -0.057,-0.035 -0.082,-0.06c-0.027,-0.026 -0.034,-0.062 -0.065,-0.081l-0.577,-0.318c-0.167,-0.092 -0.352,-0.033 -0.471,0.1c-0.007,-0.186 -0.123,-0.354 -0.315,-0.384l-0.63499,-0.098c-0.015,-0.002 -0.029,0.003 -0.042,0.009c-0.012,0.005 -0.023,0.01 -0.036,0.01c-0.013,0.001 -0.025,-0.003 -0.038,-0.006c-0.015,-0.005 -0.03,-0.009 -0.046,-0.004l-0.375,0.099c-0.014,0.003 -0.019,0.019 -0.031,0.023c-0.007,0.003 -0.014,0.002 -0.02,0.001c-0.007,-0.001 -0.013,-0.002 -0.018,0.001l-1.58799,0.75599c-0.007,0.003 -0.007,0.011 -0.013,0.014c-0.006,0.003 -0.014,0 -0.021,0.003l-5.55695,3.29297c-0.002,0 -0.002,0.004 -0.003,0.004c-0.002,0.001 -0.003,0 -0.005,0.001l-12.6249,7.91993c-0.003,0.002 -0.003,0.005 -0.005,0.008h-0.008l-1.60599,1.09299c-0.005,0.003 -0.005,0.009 -0.008,0.014c-0.005,0.003 -0.011,0.001 -0.016,0.005l-0.97399,0.77099c-0.009,0.008 -0.006,0.021 -0.014,0.029c-0.009,0.006 -0.02,0.003 -0.028,0.013l-1.28999,1.36699c-0.009,0.009 -0.004,0.024 -0.012,0.033c-0.008,0.011 -0.023,0.01 -0.031,0.021l-0.79299,1.19099c-0.007,0.009 -0.002,0.022 -0.007,0.031c-0.006,0.01 -0.019,0.011 -0.024,0.023l-0.60799,1.30599c-0.005,0.011 -0.004,0.02 -0.002,0.03c0.001,0.01 0.002,0.018 -0.001,0.028c-0.006,0.02 -0.027,0.03 -0.03,0.05l-0.221,1.44799c-0.002,0.012 0.003,0.022 0.007,0.033c0.004,0.009 0.007,0.017 0.007,0.028c0,0.009 -0.003,0.018 -0.007,0.026c-0.004,0.01 -0.009,0.021 -0.007,0.032l0.221,1.46899c0.003,0.022 0.024,0.034 0.03,0.054c0.003,0.009 0.002,0.018 0.001,0.027c-0.001,0.009 -0.002,0.018 0.002,0.027l0.61499,1.31199c0.006,0.014 0.022,0.02 0.031,0.033c0.005,0.01 0,0.019 0.007,0.029l0.83299,1.16799c0.005,0.008 0.016,0.005 0.021,0.011c0.006,0.01 0.003,0.021 0.011,0.031l1.24999,1.35099c0.008,0.008 0.019,0.005 0.027,0.011c0.008,0.008 0.006,0.021 0.014,0.029l0.97299,0.79299c0.007,0.004 0.015,0.002 0.019,0.007c0.005,0.003 0.005,0.009 0.01,0.013l1.60699,1.09199c0.001,0.003 0.005,0.002 0.006,0.003c0.003,0.002 0.003,0.003 0.005,0.006l12.6039,7.95893c0.002,0.003 0.005,0.001 0.007,0.003c0.001,0 0.001,0.003 0.003,0.003l5.55695,3.29297c0.01,0.007 0.021,0.003 0.03,0.008c0.005,0.003 0.007,0.011 0.013,0.014l1.60999,0.71499c0.016,0.006 0.032,0.005 0.044,0.009c0.008,0.002 0.01,0.012 0.016,0.012l0.375,0.098c0.033,0.01 0.068,0.014 0.1,0.014c0.021,0 0.04,-0.001 0.06,-0.004l0.63599,-0.099c0.006,0 0.007,-0.008 0.014,-0.009c0.02,-0.004 0.04,-0.004 0.06,-0.01l0.65399,-0.238c0.008,-0.002 0.01,-0.011 0.018,-0.014c0.013,-0.007 0.028,-0.005 0.04,-0.012l0.576,-0.317l0.001,-0.002c0.058,-0.031 0.108,-0.079 0.147,-0.139l0.61399,-1.01499c0.005,-0.01 0,-0.019 0.005,-0.029c0.006,-0.012 0.02,-0.019 0.027,-0.033l1.48899,-3.82997c0.002,-0.003 0.001,-0.006 0,-0.009c-0.001,-0.004 -0.001,-0.007 0,-0.011c0.002,-0.008 0.011,-0.012 0.013,-0.02l1.21299,-4.48496c0.001,-0.003 0,-0.006 -0.001,-0.009c-0.002,-0.004 -0.003,-0.008 -0.002,-0.013c0.001,-0.008 0.011,-0.013 0.013,-0.021l0.73199,-4.60496c0,-0.004 -0.001,-0.007 -0.003,-0.011c-0.002,-0.004 -0.003,-0.007 -0.002,-0.011c0,-0.008 0.009,-0.014 0.009,-0.022l0.221,-4.66496c0,-0.008 -0.006,-0.011 -0.006,-0.019c0,-0.008 0.006,-0.011 0.006,-0.019zM309.84571,188.41239l-3.08697,-1.52299l-12.92189,-7.67794l-0.96199,-0.84799c-0.002,-0.002 -0.002,0 -0.003,-0.002c-0.002,0 0,-0.001 -0.002,-0.003l-0.94499,-0.80699l-0.74299,-0.94799l-0.527,-1.05499l-0.416,-1.15199l-0.146,-1.18699l0.186,-1.20899l0.371,-1.13499l0.605,-1.02099l0.67999,-0.99999l0.93499,-0.80099l0.98099,-0.77099l12.89789,-7.71394l3.13797,-1.55099l0.224,0.027l0.80299,1.15899l0.74799,2.09298l1.06399,3.90097l0.606,3.97597l0.22,4.03597l-0.22,4.03597l-0.606,3.97997l-1.06399,3.89797l-0.74799,2.09198l-0.80599,1.16599z" fill="#c70f0f" id="element-id-81945"/>
      <path d="M270.37704,166.32458l-0.66199,-0.64499l-0.376,-0.76799l-0.154,-0.90699l-0.007,-0.009l0.157,-0.89899l0.097,-0.227l0.28,-0.559l0.163,-0.149l0.005,-0.01l0.008,-0.002l0.473,-0.473l0.79699,-0.416l0.88299,-0.12l0.537,0.089h0.009l0.356,0.052l0.414,0.208h0.002l0.379,0.19l0.47,0.453l0.17,0.183l0.386,0.78999l0.157,0.87199l-0.139,0.90499l-0.308,0.596l-0.002,0.009l-0.006,0.008l-0.088,0.192l-0.63799,0.61799l-0.80499,0.422l-0.88599,0.138l-0.86999,-0.138z" fill="#f2a900" id="element-id-53508"/>
      <path d="M285.67091,167.19657l-0.002,-0.004l-0.089,-0.533l-0.42,-0.80399l-0.62899,-0.64599l-0.79899,-0.398l-0.86999,-0.158l-0.90499,0.158l-0.059,0.028l-0.77299,0.407l-0.595,0.61299l-0.416,0.77899l-0.123,0.90499l0.123,0.87499l0.417,0.81299l0.446,0.43l0.002,0.004l0.005,0.001l0.212,0.213l0.77999,0.4l0.367,0.049l0.006,0.004l0.01,-0.004l0.509,0.089l0.83899,-0.133l0.82899,-0.443l0.554,-0.535l0.084,-0.084l0.084,-0.129l0.322,-0.65699l0.067,-0.454l0.002,-0.002l-0.002,-0.003l0.072,-0.44z" fill="#f2a900" id="element-id-729"/>
      <path d="M275.436,178.77247c-0.026,0.004 -0.049,0.007 -0.073,0.007c-0.008,0 -0.016,0 -0.018,0.003l-1.30799,-0.081c-0.003,0 -0.005,-0.003 -0.008,-0.003c-0.029,-0.003 -0.057,-0.003 -0.086,-0.013l-1.22999,-0.376c-0.015,-0.005 -0.019,-0.021 -0.032,-0.027c-0.022,-0.01 -0.045,-0.007 -0.065,-0.019l-1.09299,-0.69599c-0.014,-0.008 -0.014,-0.027 -0.028,-0.038c-0.011,-0.011 -0.03,-0.006 -0.043,-0.019l-0.93399,-0.95399c-0.009,-0.008 -0.006,-0.024 -0.014,-0.035c-0.016,-0.019 -0.038,-0.029 -0.051,-0.053l-0.61399,-1.12999c-0.004,-0.007 -0.004,-0.014 -0.003,-0.023c0,-0.008 0.001,-0.015 -0.002,-0.022c-0.008,-0.015 -0.027,-0.026 -0.032,-0.047l-0.319,-1.27199c-0.002,-0.008 0,-0.016 0.003,-0.025c0.003,-0.007 0.006,-0.015 0.005,-0.024c-0.003,-0.016 -0.021,-0.027 -0.021,-0.046v-1.28999c0,-0.015 0.016,-0.027 0.019,-0.042c0.001,-0.007 -0.001,-0.014 -0.004,-0.021c-0.003,-0.009 -0.006,-0.017 -0.004,-0.025l0.299,-1.27199c0.005,-0.018 0.025,-0.024 0.033,-0.043c0.003,-0.009 0.003,-0.018 0.002,-0.027c0,-0.011 -0.001,-0.021 0.005,-0.03l0.63499,-1.15199c0.008,-0.017 0.028,-0.017 0.039,-0.033c0.01,-0.013 0.005,-0.033 0.018,-0.046l0.87499,-0.93399c0.011,-0.012 0.032,-0.009 0.044,-0.02c0.015,-0.01 0.013,-0.03 0.029,-0.04l1.09199,-0.71399c0.009,-0.006 0.018,-0.006 0.027,-0.006c0.008,0 0.016,0 0.024,-0.004c0.016,-0.008 0.021,-0.029 0.04,-0.035l1.24899,-0.416c0.01,-0.003 0.019,-0.001 0.03,0.002c0.008,0.002 0.016,0.004 0.024,0.003c0.016,-0.005 0.027,-0.024 0.046,-0.026l1.28999,-0.081c0.009,0 0.016,0.004 0.024,0.008c0.008,0.004 0.016,0.008 0.025,0.008c0.007,0.001 0.013,-0.001 0.02,-0.004c0.008,-0.004 0.016,-0.007 0.026,-0.005l1.30799,0.238h0.002c0.019,0.005 0.027,0.025 0.046,0.032c0.009,0.003 0.017,0.002 0.026,0c0.01,-0.001 0.019,-0.002 0.03,0.003l1.13199,0.556c0.014,0.004 0.017,0.023 0.03,0.033c0.011,0.006 0.027,0.002 0.04,0.011l1.03199,0.81499c0.016,0.012 0.014,0.033 0.028,0.049c0.015,0.016 0.037,0.014 0.05,0.032l0.75399,1.05199c0.009,0.011 0.003,0.029 0.009,0.042c0.01,0.014 0.027,0.017 0.034,0.031l0.514,1.19099c0.004,0.01 0.003,0.02 0.001,0.03c-0.001,0.009 -0.002,0.018 0.001,0.027c0.004,0.02 0.025,0.031 0.028,0.053l0.162,1.32899c0.001,0.009 -0.003,0.016 -0.007,0.024c-0.003,0.008 -0.007,0.016 -0.007,0.025c0,0.007 0.003,0.014 0.007,0.021c0.004,0.008 0.009,0.018 0.007,0.028l-0.162,1.24999c-0.003,0.017 -0.02,0.027 -0.025,0.046c-0.002,0.006 0,0.013 0.001,0.02c0.002,0.009 0.004,0.017 0,0.026l-0.474,1.22899c-0.007,0.019 -0.027,0.029 -0.038,0.048c-0.008,0.011 -0.002,0.027 -0.01,0.039l-0.75399,1.05299c-0.008,0.014 -0.027,0.008 -0.038,0.021c-0.015,0.016 -0.011,0.038 -0.029,0.052l-0.99199,0.83199c-0.016,0.014 -0.035,0.01 -0.053,0.021c-0.014,0.006 -0.016,0.025 -0.031,0.033l-1.19099,0.573c-0.026,0.013 -0.051,0.013 -0.076,0.019c-0.01,0.004 -0.015,0.013 -0.024,0.016zM273.07002,177.40449l1.09399,0.346l1.14999,0.076l1.15099,-0.238l1.04099,-0.492l0.87199,-0.74499l0.68299,-0.95899l0.419,-1.05599l0.098,-0.87199c-0.063,-0.07 -0.108,-0.16 -0.108,-0.26c0,-0.102 0.045,-0.191 0.108,-0.26l-0.1,-0.92899l-0.452,-1.05199l-0.69899,-0.95899l-0.87799,-0.72799l-1.05599,-0.475l-1.13299,-0.199l-1.16899,0.072l-1.09399,0.365l-0.96499,0.63699l-0.78499,0.83999c-0.001,0.001 -0.003,0.001 -0.005,0.001l-0.549,1.02399l-0.292,1.11799v1.15899l0.311,1.11799l0.522,0.94199l0.004,0.003l0.023,0.043l0.82299,0.87599z" fill="#222223" id="element-id-68081"/>
      <path d="M267.67606,171.49453l0.397,0.77899l0.141,0.91199l-0.125,0.85899l-0.413,0.80999l-0.173,0.17v0.001l-0.47,0.47l-0.379,0.191c-0.004,0.001 -0.004,0.006 -0.007,0.008c-0.002,0.002 -0.005,0.001 -0.008,0.001h-0.004l-0.391,0.221l-0.88499,0.122l-0.523,-0.074c-0.056,-0.032 -0.119,-0.031 -0.187,-0.029h-0.001l-0.19,-0.037l-0.80699,-0.401l-0.62899,-0.62899l-0.224,-0.416l-0.195,-0.387l-0.067,-0.391l-0.07,-0.484l0.161,-0.89599l0.127,-0.257l0.29,-0.546l0.62899,-0.64499l0.77799,-0.397l0.90199,-0.14l0.61099,0.107c0.007,0.001 0.012,0.001 0.018,0.001c0.002,0 0.002,0.002 0.003,0.002l0.249,0.033l0.79599,0.396l0.111,0.112c0.002,0 0.002,0.002 0.002,0.004z" fill="#f2a900" id="element-id-44367"/>
      <path d="M280.08996,179.80147l0.417,0.80199l0.63199,0.60999l0.78299,0.419l0.90399,0.14l0.587,-0.089l0.002,-0.002l0.301,-0.049l0.64199,-0.311l0.132,-0.073l0.006,-0.016l0.64799,-0.62699l0.414,-0.79899l0.048,-0.31l0.074,-0.584l-0.033,-0.386l-0.086,-0.495l-0.27,-0.535l-0.147,-0.284l-0.075,-0.073l-0.556,-0.539l-0.80299,-0.436l-0.88299,-0.139l-0.90499,0.158l-0.77799,0.397l-0.414,0.432l-0.013,0.004l-0.005,0.011l-0.206,0.191l-0.416,0.81299l-0.156,0.86799l0.07,0.431z" fill="#f2a900" id="element-id-29134"/>
      <path d="M266.00307,183.38044c0.001,0.011 0.012,0.016 0.012,0.026l0.059,1.45299c0,0.012 -0.013,0.022 -0.013,0.033c0,0.005 0.003,0.01 0.005,0.015c0.003,0.006 0.006,0.011 0.005,0.018l-0.238,1.84498c-0.002,0.01 -0.011,0.015 -0.013,0.024c-0.001,0.005 0,0.01 0.002,0.014c0.001,0.004 0.002,0.008 0.001,0.012l-0.316,1.21299c-0.003,0.009 -0.011,0.012 -0.014,0.022c-0.002,0.003 -0.001,0.006 0,0.009c0.001,0.004 0.001,0.007 0,0.01l-0.69599,1.82398l-0.001,0.002v0.005l-5.53795,13.83389l-0.005,0.005v0.003l-2.54098,5.93595c-0.003,0.006 -0.011,0.009 -0.016,0.017c-0.001,0.003 -0.001,0.006 0,0.01c0,0.002 0,0.005 -0.001,0.008l-0.85299,1.55099c-0.008,0.014 -0.025,0.021 -0.036,0.036c-0.007,0.01 -0.002,0.023 -0.01,0.031l-0.238,0.277c-0.018,0.021 -0.046,0.016 -0.067,0.032c-0.024,0.019 -0.028,0.051 -0.057,0.065l-0.595,0.299c-0.056,0.027 -0.116,0.041 -0.177,0.041c-0.095,0 -0.181,-0.044 -0.254,-0.109c-0.033,0.166 -0.149,0.311 -0.328,0.327l-0.67399,0.058c-0.009,0.002 -0.022,0.002 -0.033,0.002c-0.048,0 -0.098,-0.01 -0.146,-0.029l-1.11299,-0.436c-0.011,-0.003 -0.013,-0.018 -0.024,-0.023c-0.014,-0.007 -0.032,-0.004 -0.046,-0.014l-3.43297,-2.22098c-0.006,-0.003 -0.006,-0.013 -0.013,-0.018c-0.006,-0.004 -0.015,-0.003 -0.023,-0.008l-3.63197,-2.95798c-0.006,-0.003 -0.005,-0.012 -0.011,-0.019c-0.005,-0.005 -0.014,-0.003 -0.019,-0.008l-3.29297,-3.29397c-0.006,-0.007 -0.003,-0.016 -0.01,-0.023c-0.004,-0.006 -0.014,-0.003 -0.019,-0.009l-2.93998,-3.63297c-0.003,-0.005 -0.002,-0.011 -0.005,-0.014c-0.006,-0.01 -0.016,-0.012 -0.021,-0.019l-2.53998,-3.91097c-0.003,-0.005 0,-0.013 -0.003,-0.019c-0.005,-0.007 -0.013,-0.01 -0.018,-0.018l-2.10198,-4.14697c-0.002,-0.003 -0.001,-0.006 -0.001,-0.01c0.001,-0.002 0.001,-0.005 -0.001,-0.006c-0.003,-0.01 -0.012,-0.013 -0.016,-0.022l-1.68599,-4.36696c-0.001,-0.003 -0.001,-0.006 0,-0.01c0.001,-0.004 0.002,-0.008 0,-0.012c-0.001,-0.006 -0.011,-0.011 -0.013,-0.019l-1.05099,-3.93197c-0.001,-0.006 0.001,-0.011 0.002,-0.018c0.003,-0.006 0.005,-0.012 0.003,-0.02c-0.002,-0.012 -0.016,-0.02 -0.017,-0.036l-0.081,-1.19099c-0.001,-0.019 0.007,-0.035 0.015,-0.051c0.006,-0.011 0.012,-0.023 0.015,-0.036c0.002,-0.013 0,-0.026 -0.002,-0.039v-0.001c-0.003,-0.018 -0.006,-0.036 0.002,-0.054l0.257,-0.61599c0.071,-0.176 0.256,-0.246 0.435,-0.213c-0.075,-0.149 -0.078,-0.325 0.046,-0.449l0.478,-0.478c0.021,-0.019 0.049,-0.016 0.073,-0.03c0.022,-0.016 0.029,-0.045 0.056,-0.054l0.338,-0.14c0.006,-0.004 0.013,-0.002 0.019,-0.001c0.006,0.001 0.012,0.002 0.017,0.001c0.013,-0.005 0.019,-0.019 0.032,-0.022l1.74699,-0.377c0.004,-0.001 0.008,0.001 0.013,0.003h0.001c0.003,0.001 0.006,0.002 0.01,0.002c0.009,-0.001 0.014,-0.013 0.023,-0.013l6.44995,-0.595c0.003,0 0.005,0.003 0.006,0.003c0.004,-0.001 0.004,-0.003 0.007,-0.003l14.82688,-0.95599c0.001,0 0.003,0.003 0.005,0.003c0.001,0 0.003,-0.003 0.004,-0.003l1.96298,-0.079c0.006,0.001 0.011,0.006 0.017,0.008c0.003,0 0.006,-0.002 0.009,-0.004c0.003,-0.002 0.006,-0.003 0.009,-0.003l1.24999,0.059c0.012,0.002 0.019,0.013 0.03,0.016c0.004,0 0.009,-0.002 0.013,-0.003c0.007,-0.003 0.013,-0.005 0.02,-0.003l1.80899,0.374c0.008,0.003 0.011,0.013 0.02,0.015c0.004,0 0.007,0 0.011,-0.002c0.004,-0.001 0.009,-0.002 0.013,0l1.38899,0.456c0.013,0.004 0.019,0.019 0.031,0.025c0.005,0.003 0.01,0.003 0.017,0.002c0.007,-0.001 0.014,-0.001 0.021,0.003l1.24899,0.69499c0.018,0.011 0.021,0.035 0.038,0.048c0.016,0.013 0.039,0.01 0.054,0.025l1.03199,1.07099c0.015,0.015 0.01,0.036 0.021,0.052c0.011,0.014 0.033,0.016 0.043,0.033l0.69499,1.28999c0.007,0.012 0.006,0.023 0.005,0.036c0,0.01 -0.001,0.019 0.002,0.029c0.006,0.022 0.03,0.033 0.035,0.057l0.238,1.40999c0.001,0.005 -0.001,0.009 -0.003,0.014c-0.002,0.003 -0.003,0.007 -0.003,0.011zM263.2371,189.09239l0.373,-1.21699l0.278,-1.18699l-0.056,-1.21799v-0.002l-0.094,-1.18699l-0.373,-1.15799l-0.556,-1.05399l-0.82799,-0.88499l-0.99299,-0.69199l-1.06999,-0.526l-1.14499,-0.338l-1.24599,-0.097c-0.003,-0.001 -0.008,0 -0.011,-0.001l-1.24999,-0.134l-14.95388,1.38699l-3.41597,0.57l-0.2,0.192l0.034,1.42899l0.73299,2.10398v0.001l1.33599,3.79397l1.92698,3.53997l2.12498,3.44297l2.51498,3.14197l2.84398,2.84398l3.20897,2.46098h0.001l1.77899,1.33199l1.33499,0.475l0.218,-0.127l1.59399,-3.09097v-0.002z" fill="#c70f0f" id="element-id-47850"/>
      <path d="M269.27705,183.26044l0.417,0.80099l0.391,0.412h0.001l0.239,0.236l0.77899,0.415l0.88199,0.139l0.271,-0.047l0.008,0.001l0.006,-0.003l0.63099,-0.09l0.417,-0.21l0.377,-0.187l0.424,-0.44l0.2,-0.218l0.033,-0.068l0.002,-0.001v-0.002l0.39,-0.76199l0.135,-0.84499l-0.14,-0.89099l-0.285,-0.578l-0.121,-0.211l-0.302,-0.302h-0.001l-0.337,-0.333l-0.76899,-0.395l-0.95899,-0.146l-0.87099,0.125l-0.79299,0.394l-0.62499,0.66399l-0.4,0.78599l-0.142,0.88899z" fill="#f2a900" id="element-id-80861"/>
      <path d="M305.58675,203.72527l0.099,0.63499c0.028,0.191 -0.094,0.351 -0.261,0.421c0.16,0.07 0.278,0.221 0.248,0.403l-0.099,0.63199c-0.008,0.046 -0.041,0.075 -0.062,0.111c-0.014,0.029 -0.006,0.061 -0.028,0.086l-0.79399,0.93399c-0.008,0.011 -0.024,0.006 -0.033,0.016c-0.01,0.009 -0.008,0.025 -0.019,0.035l-3.17597,2.57998c-0.006,0.005 -0.016,0.003 -0.022,0.006c-0.007,0.007 -0.007,0.015 -0.013,0.019l-3.89197,2.51998c-0.008,0.005 -0.017,0.003 -0.027,0.008c-0.005,0.003 -0.005,0.01 -0.011,0.013l-4.16797,2.10498c-0.008,0.003 -0.017,0.002 -0.025,0.007c-0.005,0 -0.007,0.008 -0.011,0.009l-4.36696,1.68599c-0.011,0.004 -0.022,0.004 -0.032,0.007c-0.005,0 -0.006,0.006 -0.009,0.006l-4.50296,1.21199c-0.011,0.003 -0.023,0.001 -0.034,0.004c-0.003,0 -0.004,0.004 -0.008,0.005l-4.60396,0.73499c-0.011,0.002 -0.026,0.002 -0.04,0.003l-0.002,0.002l-4.64596,0.235c-0.006,0.002 -0.014,0.002 -0.02,0.002c-0.007,0 -0.015,0 -0.022,-0.002l-4.08797,-0.217c-0.001,0 -0.003,-0.004 -0.004,-0.004c-0.023,-0.001 -0.043,-0.003 -0.065,-0.008l-1.17199,-0.277c-0.037,-0.01 -0.051,-0.043 -0.083,-0.059c-0.032,-0.018 -0.071,-0.013 -0.1,-0.04l-0.475,-0.456c-0.007,-0.009 -0.004,-0.022 -0.012,-0.031c-0.008,-0.007 -0.021,-0.004 -0.027,-0.013l-0.419,-0.537c-0.007,-0.008 -0.002,-0.019 -0.008,-0.028c-0.01,-0.011 -0.024,-0.018 -0.032,-0.034l-0.299,-0.573c-0.008,-0.016 -0.007,-0.031 -0.005,-0.047c0.001,-0.012 0.002,-0.023 -0.001,-0.034c-0.008,-0.032 -0.036,-0.051 -0.038,-0.084l-0.019,-0.375c0,-0.011 0.011,-0.02 0.013,-0.033c0,-0.005 -0.003,-0.01 -0.005,-0.014c-0.003,-0.005 -0.006,-0.011 -0.005,-0.018l0.199,-1.78599c0,-0.007 0.009,-0.011 0.011,-0.019c0,-0.004 -0.001,-0.008 -0.003,-0.011c-0.001,-0.004 -0.003,-0.008 -0.002,-0.011l1.40799,-6.31495c0,-0.002 0.003,-0.003 0.005,-0.005c0,-0.002 -0.002,-0.005 -0.002,-0.006l3.67097,-14.40788c0,-0.002 0.002,-0.002 0.002,-0.003v-0.004v-0.001l0.518,-1.88698c0.001,-0.007 0.011,-0.009 0.012,-0.017c0.002,-0.004 0.001,-0.007 0,-0.011c0,-0.004 -0.001,-0.007 0,-0.011l0.456,-1.17199c0.005,-0.011 0.018,-0.013 0.022,-0.024c0.003,-0.004 0.002,-0.009 0.002,-0.014c-0.001,-0.005 -0.001,-0.01 0.002,-0.014l0.91099,-1.60399c0.005,-0.01 0.017,-0.01 0.024,-0.019c0.004,-0.008 0,-0.019 0.006,-0.027l0.87499,-1.15299c0.008,-0.01 0.022,-0.008 0.03,-0.017c0.008,-0.008 0.005,-0.021 0.013,-0.031l1.03199,-0.99199c0.016,-0.016 0.04,-0.01 0.057,-0.022c0.018,-0.013 0.021,-0.038 0.043,-0.049l1.34999,-0.65499c0.01,-0.005 0.02,-0.003 0.031,-0.002c0.009,0.001 0.019,0.002 0.027,-0.001c0.019,-0.006 0.029,-0.027 0.05,-0.032l1.42899,-0.238c0.011,-0.001 0.02,0.003 0.03,0.007c0.009,0.004 0.017,0.008 0.027,0.008c0.009,-0.001 0.017,-0.005 0.025,-0.009c0.009,-0.004 0.019,-0.009 0.03,-0.007l1.44699,0.171c0.013,0.002 0.017,0.014 0.028,0.016c0.006,0.002 0.012,0 0.017,-0.002c0.006,-0.001 0.011,-0.003 0.017,-0.001l1.36699,0.397c0.013,0.003 0.016,0.017 0.027,0.022c0.005,0.001 0.01,0.001 0.015,0c0.006,0 0.012,-0.001 0.018,0.002l1.66899,0.79399c0.008,0.004 0.01,0.014 0.018,0.019c0.003,0.002 0.007,0.002 0.011,0.002c0.004,-0.001 0.008,-0.001 0.012,0.002l1.07399,0.67699c0.006,0.003 0.006,0.012 0.012,0.016c0.007,0.006 0.016,0.001 0.023,0.006l1.54799,1.20999c0.001,0.003 0.001,0.006 0.003,0.006c0.002,0.002 0.005,0 0.006,0.003l11.43091,9.54592c0.002,0.004 0.002,0.005 0.003,0.007c0.002,0.001 0.005,0 0.007,0.003l4.80296,4.26796c0.005,0.003 0.003,0.011 0.008,0.016c0.004,0.005 0.011,0.003 0.016,0.006l1.24899,1.31199c0.01,0.009 0.005,0.022 0.013,0.033c0.009,0.011 0.024,0.01 0.032,0.021l0.198,0.298c0.018,0.027 0.006,0.059 0.018,0.088c0.011,0.028 0.039,0.041 0.044,0.071zM275.107,192.95536l-3.32597,14.66788l-0.488,3.41697l0.119,0.232l1.39299,0.397l2.22398,0.076l4.02097,-0.214l3.97597,-0.63099l3.88197,-1.05899l3.78397,-1.43699l3.58497,-1.82198l3.40597,-2.20398l1.75299,-1.34799l0.85399,-1.14699l-0.044,-0.228l-2.40798,-2.49998l-11.34091,-9.85692l-1.03599,-0.69399l-1.07099,-0.64899l-1.14799,-0.338l-1.17399,-0.264l-1.19699,-0.019l-1.21499,0.202l-1.05999,0.53l-0.98799,0.73999l-0.82699,0.84499l-0.69099,0.98999l-0.479,1.14999c0,0.002 -0.002,0.002 -0.002,0.003v0.003z" fill="#c70f0f" id="element-id-58078"/>
    </g>
  </g>
</svg>