<?xml version="1.0" encoding="utf-8"?>
<svg viewBox="32.53 192.4106 420.0008 72.629" xmlns="http://www.w3.org/2000/svg">
  <g fill="#f2a900" fill-rule="none" stroke="none" stroke-width="1" stroke-linecap="butt" stroke-linejoin="miter" stroke-miterlimit="10" stroke-dasharray="" stroke-dashoffset="0" font-family="none" font-weight="none" font-size="none" text-anchor="none" style="mix-blend-mode: normal" transform="matrix(1, 0, 0, 1, -32.46924591064453, -6.274930953979492)">
    <g data-paper-data="{&quot;isGlobalGroup&quot;:true,&quot;bounds&quot;:{&quot;x&quot;:65,&quot;y&quot;:198.68548900845195,&quot;width&quot;:420,&quot;height&quot;:72.6290219830961}}">
      <g data-paper-data="{&quot;isPrimaryText&quot;:true}" fill-rule="nonzero" id="element-id-18611">
        <path d="M65,271.27829h35.28275l-3.62246,-3.94848h-22.49547l14.01892,-15.35923l0.76072,0.83317c3.36889,3.69491 16.73576,18.29342 16.91688,18.47454h5.50614c-5.65104,-6.23063 -20.61179,-22.64037 -23.18374,-25.35721z" data-paper-data="{&quot;glyphName&quot;:&quot;A&quot;,&quot;glyphIndex&quot;:0,&quot;firstGlyphOfWord&quot;:true,&quot;word&quot;:1}" fill="#000000" id="element-id-49326"/>
        <path d="M116.15516,245.88485v18.61944c0,3.76736 3.44134,6.73777 7.0638,6.73777h31.00825c3.69491,0 7.0638,-2.97042 7.0638,-6.73777v-18.61944h-4.1296v18.61944c0,1.48521 -1.23164,2.78929 -2.93419,2.78929h-31.00825c-1.55766,0 -2.93419,-1.34031 -2.93419,-2.78929v-18.61944z" data-paper-data="{&quot;glyphName&quot;:&quot;U&quot;,&quot;glyphIndex&quot;:1,&quot;word&quot;:1}" fill="#000000" id="element-id-78741"/>
        <path d="M167.96237,249.86955h20.46689v21.37251h4.1296v-21.37251h20.53934v-3.98471h-45.13584z" data-paper-data="{&quot;glyphName&quot;:&quot;T&quot;,&quot;glyphIndex&quot;:2,&quot;word&quot;:1}" fill="#000000" id="element-id-15079"/>
        <path d="M219.76957,252.65885v11.88167c0,3.76736 3.22399,6.774 7.13624,6.774h30.89958c3.91226,0 7.13624,-3.00664 7.13624,-6.774v-11.88167c0,-3.76736 -3.22399,-6.774 -7.13624,-6.774h-30.89958c-3.91226,0 -7.13624,3.00664 -7.13624,6.774zM223.82673,264.50429v-11.88167c0,-1.48521 1.34031,-2.75307 3.04287,-2.75307h30.89958c1.70256,0 3.04287,1.26786 3.04287,2.75307v11.88167c0,1.44898 -1.34031,2.78929 -3.04287,2.78929h-30.89958c-1.70256,0 -3.04287,-1.34031 -3.04287,-2.78929z" data-paper-data="{&quot;glyphName&quot;:&quot;O&quot;,&quot;glyphIndex&quot;:3,&quot;lastGlyphOfWord&quot;:true,&quot;word&quot;:1}" fill="#000000" id="element-id-94117"/>
        <path d="M300.38136,271.24206h4.1296v-16.51841l18.43832,15.72147l18.51077,-15.72147v16.51841h4.1296v-25.35721l-22.67659,19.23526l-22.5317,-19.23526z" data-paper-data="{&quot;glyphName&quot;:&quot;M&quot;,&quot;glyphIndex&quot;:4,&quot;firstGlyphOfWord&quot;:true,&quot;word&quot;:2}" fill="#c70f0f" id="element-id-29231"/>
        <path d="M351.89877,271.27829h35.28275l-3.62246,-3.94848h-22.49547l14.01892,-15.35923l0.76072,0.83317c3.36889,3.69491 16.73576,18.29342 16.91688,18.47454h5.50614c-5.65104,-6.23063 -20.61179,-22.64037 -23.18374,-25.35721z" data-paper-data="{&quot;glyphName&quot;:&quot;A&quot;,&quot;glyphIndex&quot;:5,&quot;word&quot;:2}" fill="#c70f0f" id="element-id-29732"/>
        <path d="M408.70497,267.29358v-21.40873h-4.1296v25.35721h36.87664v-3.94848z" data-paper-data="{&quot;glyphName&quot;:&quot;L&quot;,&quot;glyphIndex&quot;:6,&quot;word&quot;:2}" fill="#c70f0f" id="element-id-21208"/>
        <path d="M452.25297,267.29358v-21.40873h-4.1296v25.35721h36.87664v-3.94848z" data-paper-data="{&quot;glyphName&quot;:&quot;L&quot;,&quot;glyphIndex&quot;:7,&quot;lastGlyphOfWord&quot;:true,&quot;word&quot;:2}" fill="#c70f0f" id="element-id-76285"/>
      </g>
      <g data-paper-data="{&quot;fillRule&quot;:&quot;evenodd&quot;,&quot;fillRuleOriginal&quot;:&quot;evenodd&quot;,&quot;isIcon&quot;:true,&quot;iconStyle&quot;:&quot;standalone&quot;,&quot;selectedEffects&quot;:{&quot;container&quot;:&quot;&quot;,&quot;transformation&quot;:&quot;&quot;,&quot;pattern&quot;:&quot;&quot;},&quot;bounds&quot;:{&quot;x&quot;:164.2597688432136,&quot;y&quot;:198.68548900845195,&quot;width&quot;:221.48046231357281,&quot;height&quot;:37.72607792958328},&quot;iconType&quot;:&quot;icon&quot;,&quot;rawIconId&quot;:&quot;fab0539c-3f1f-4c23-a8a6-f31959fac343&quot;,&quot;isSvgStockIcon&quot;:true,&quot;combineTerms&quot;:&quot;car&quot;,&quot;combineTermsExtended&quot;:{&quot;icon&quot;:[&quot;car&quot;]},&quot;isDetailed&quot;:false,&quot;suitableAsStandaloneIcon&quot;:true}" fill-rule="evenodd" id="element-id-95281">
        <g data-paper-data="{&quot;isPathIcon&quot;:true}" id="element-id-49387">
          <path d="M205.84986,209.55151c1.636,-0.405 3.66101,-0.86 5.95601,-1.383c1.147,-0.253 2.379,-0.523 3.69501,-0.81c1.299,-0.27 2.64901,-0.557 4.08301,-0.844c2.85101,-0.557 5.93901,-1.147 9.21202,-1.721c3.27301,-0.557 6.73201,-1.096 10.32602,-1.603c7.17001,-1.012 14.84703,-1.805 22.55805,-2.142c3.84601,-0.152 7.69302,-0.203 11.47302,-0.085c3.77901,0.118 7.47402,0.405 10.96702,1.013c1.67,0.303 3.32301,0.809 4.89201,1.4c1.57,0.607 3.08801,1.282 4.55601,2.008c2.91901,1.451 5.58501,3.03701 7.98002,4.58901c4.82601,3.08801 8.62202,6.02301 11.25402,8.09902c1.316,1.029 6.49601,0.438 6.49601,0.438c0,0 -0.388,-0.303 -1.114,-0.894c-0.725,-0.574 -1.788,-1.4 -3.17201,-2.43001c-1.366,-1.029 -3.05401,-2.244 -5.02801,-3.59301c-1.974,-1.35 -4.21801,-2.83501 -6.74801,-4.35301c-2.53101,-1.519 -5.33201,-3.07101 -8.42002,-4.50501c-1.552,-0.709 -3.17101,-1.384 -4.87601,-1.974c-1.721,-0.574 -3.50901,-1.08 -5.41601,-1.367c-3.69501,-0.54 -7.49102,-0.692 -11.33802,-0.709c-3.84601,0 -7.74402,0.152 -11.62502,0.456c-7.76102,0.591 -15.47103,1.62 -22.64205,2.85101c-3.59401,0.625 -7.03601,1.283 -10.30902,1.941c-3.25601,0.675 -6.32701,1.35 -9.16102,2.008c-1.418,0.337 -2.76701,0.674 -4.06601,0.978l-3.64501,0.911c-2.278,0.591 -4.26901,1.114 -5.90501,1.552c-1.637,0.456 -2.91901,0.827 -3.79601,1.063c-0.878,0.237 -1.35,0.372 -1.35,0.372l1.35,-0.338c0.877,-0.219 2.159,-0.557 3.81301,-0.928z" fill="#f2a900" id="element-id-62079"/>
          <path d="M225.3539,210.36151c0.236,-0.084 0.472,-0.186 0.692,-0.27c0.455,-0.169 0.928,-0.321 1.383,-0.472c0.473,-0.135 0.928,-0.287 1.401,-0.405c0.236,-0.068 0.455,-0.135 0.708,-0.186c0.236,-0.067 0.473,-0.118 0.709,-0.169c0.472,-0.118 0.945,-0.219 1.417,-0.303c0.473,-0.102 0.945,-0.186 1.434,-0.27c0.236,-0.051 0.473,-0.068 0.709,-0.118l0.708,-0.102c0.49,-0.067 0.962,-0.118 1.451,-0.168l0.034,0.185c-0.928,0.253 -1.856,0.523 -2.75001,0.81c-0.455,0.135 -0.911,0.27 -1.367,0.439c-0.455,0.152 -0.894,0.303 -1.349,0.455c-0.22,0.068 -0.439,0.152 -0.658,0.236c-0.22,0.085 -0.439,0.169 -0.675,0.254c-0.439,0.168 -0.878,0.337 -1.316,0.523c-0.439,0.185 -0.878,0.371 -1.299,0.573c-0.102,0.051 -0.203,0.102 -0.321,0.152c0.692,0.658 1.4,1.316 2.109,1.957c0.979,0.861 1.974,1.671 3.00301,2.44701c0.523,0.388 1.029,0.759 1.569,1.113c0.523,0.371 1.063,0.709 1.603,1.03c1.08,0.641 2.21,1.197 3.35801,1.569c0.557,0.168 1.164,0.32 1.704,0.371c0.067,0 0.135,0 0.202,0.017l0.253,0.017l0.473,0.016l0.995,0.034l3.96501,0.118l7.89602,0.253l7.88002,0.253c2.63201,0.085 5.26401,0.186 7.89602,0.287l7.87902,0.321l7.89602,0.337v0.186l-15.79203,0.017l-15.79203,-0.051c-2.63201,-0.017 -5.24801,-0.017 -7.88002,0l-3.94801,0.034h-0.978l-0.523,0.017c-0.152,0 -0.321,0 -0.523,-0.017c-0.76,-0.051 -1.468,-0.169 -2.143,-0.371c-1.384,-0.388 -2.63201,-0.996 -3.81301,-1.688c-0.591,-0.354 -1.164,-0.725 -1.721,-1.113c-0.54,-0.388 -1.097,-0.793 -1.62,-1.215c-1.046,-0.843 -2.041,-1.755 -3.00301,-2.66601c-0.473,-0.472 -0.945,-0.928 -1.401,-1.434c-0.455,-0.489 -0.894,-0.978 -1.349,-1.501l-0.641,-0.743l0.826,-0.422c0.27,-0.151 0.473,-0.236 0.709,-0.337z" fill="#f2a900" id="element-id-67873"/>
          <path d="M166.68978,218.20753c1.569,-0.338 3.79601,-0.81 6.46201,-1.401c1.332,-0.287 2.78401,-0.607 4.30201,-0.945c1.535,-0.337 3.15501,-0.675 4.84201,-0.995c1.688,-0.338 3.42501,-0.675 5.21401,-0.979c1.771,-0.287 3.59401,-0.59 5.41601,-0.81c0.911,-0.135 1.839,-0.219 2.75001,-0.337c0.928,-0.084 1.839,-0.203 2.75001,-0.253c0.911,-0.068 1.822,-0.118 2.73301,-0.135c0.456,-0.017 0.911,0 1.35,0.017c0.219,0 0.439,0 0.658,0.017c0.236,0.016 0.456,0.033 0.658,0.05c0.894,0.051 1.755,0.152 2.61501,0.287c0.422,0.068 0.844,0.169 1.266,0.236c0.421,0.068 0.826,0.203 1.214,0.304c0.81,0.202 1.57,0.489 2.312,0.742c0.371,0.152 0.725,0.321 1.063,0.473c0.354,0.152 0.675,0.337 0.995,0.523c0.152,0.084 0.321,0.185 0.473,0.27l0.236,0.135c0.067,0.05 0.152,0.101 0.219,0.152c0.287,0.202 0.557,0.404 0.844,0.607c0.135,0.084 0.253,0.202 0.371,0.304c0.135,0.118 0.253,0.219 0.371,0.32c0.118,0.101 0.237,0.203 0.338,0.304l0.185,0.152l0.152,0.168c0.827,0.861 1.417,1.688 1.839,2.43001c0.203,0.371 0.371,0.709 0.523,0.996c0.118,0.286 0.22,0.539 0.27,0.742c0.152,0.405 0.236,0.624 0.236,0.624l-0.253,0.152c0,0 -0.151,-0.186 -0.421,-0.523c-0.135,-0.169 -0.304,-0.371 -0.49,-0.624c-0.219,-0.22 -0.455,-0.456 -0.708,-0.743c-0.068,-0.067 -0.135,-0.135 -0.203,-0.219c-0.067,-0.067 -0.152,-0.135 -0.236,-0.202c-0.152,-0.135 -0.321,-0.287 -0.489,-0.439c-0.085,-0.068 -0.186,-0.152 -0.253,-0.236c-0.085,-0.068 -0.203,-0.135 -0.304,-0.22c-0.203,-0.152 -0.405,-0.303 -0.624,-0.438l-0.152,-0.118l-0.169,-0.085l-0.354,-0.202c-0.102,-0.068 -0.236,-0.135 -0.355,-0.22c-0.118,-0.067 -0.236,-0.151 -0.371,-0.202c-0.27,-0.135 -0.54,-0.253 -0.81,-0.388l-0.202,-0.101l-0.219,-0.085c-0.152,-0.05 -0.304,-0.118 -0.439,-0.168c-0.574,-0.254 -1.232,-0.422 -1.873,-0.625c-0.675,-0.152 -1.367,-0.337 -2.109,-0.472c-0.169,-0.034 -0.354,-0.068 -0.54,-0.101c-0.185,-0.034 -0.371,-0.051 -0.573,-0.068c-0.372,-0.05 -0.76,-0.101 -1.148,-0.152c-0.388,-0.033 -0.793,-0.067 -1.181,-0.118c-0.405,-0.05 -0.81,-0.067 -1.215,-0.101c-1.636,-0.135 -3.35701,-0.219 -5.11201,-0.219c-0.549,-0.021 -1.104,-0.01 -1.658,0.002v0c-0.332,0.007 -0.662,0.015 -0.991,0.015c-0.455,0.016 -0.894,0.033 -1.333,0.05c-0.455,0.017 -0.911,0.051 -1.349,0.084c-1.806,0.119 -3.59401,0.321 -5.38301,0.507c-1.771,0.202 -3.50901,0.405 -5.21301,0.641c-1.687,0.236 -3.34101,0.438 -4.87601,0.658c-1.552,0.219 -3.02001,0.422 -4.37001,0.607c-2.71601,0.371 -4.97701,0.692 -6.56301,0.878c-1.586,0.202 -2.49701,0.303 -2.49701,0.303l-0.051,-0.303c-0.001,-0.002 0.154,-0.035 0.447,-0.097c0.409,-0.087 1.086,-0.232 1.983,-0.426z" fill="#f2a900" id="element-id-48317"/>
          <path d="M299.64205,215.17052c5.14601,1.265 9.12802,5.58401 9.12802,5.58401c0,0 -2.43001,-1.94 -8.08202,-2.96901c-3.61101,-0.658 -4.60601,-0.051 -4.60601,-0.051c0.002,-0.191 -0.004,-0.384 -0.01,-0.575v-0.02c-0.047,-1.519 -0.088,-2.88001 3.57001,-1.969z" fill="#f2a900" id="element-id-7109"/>
          <path d="M314.06808,222.07054c2.159,-0.135 5.26401,-0.32 8.97502,-0.54c0.928,-0.067 1.89,-0.135 2.88601,-0.202c0.995,-0.085 2.007,-0.152 3.07001,-0.236c0.523,-0.034 1.08,-0.118 1.603,-0.169c0.54,-0.051 1.08,-0.118 1.62,-0.169c1.113,-0.152 2.244,-0.304 3.39101,-0.439c1.164,-0.151 2.345,-0.303 3.52601,-0.438c1.198,-0.135 2.413,-0.253 3.64501,-0.354c2.46301,-0.22 4.99401,-0.304 7.52502,-0.22c1.265,0.034 2.53101,0.135 3.79601,0.253c0.624,0.085 1.265,0.152 1.89,0.253c0.624,0.118 1.248,0.203 1.856,0.338c2.46301,0.489 4.84201,1.181 7.05201,2.041c2.227,0.844 4.30301,1.856 6.19201,2.90201c1.89,1.046 3.61101,2.177 5.14601,3.25701c0.371,0.27 0.759,0.54 1.114,0.81c0.354,0.269 0.725,0.506 1.063,0.792c0.658,0.524 1.316,1.03 1.889,1.502c0.591,0.506 1.148,0.945 1.637,1.384c0.489,0.438 0.928,0.843 1.333,1.214c0.202,0.186 0.405,0.355 0.574,0.523c0.168,0.169 0.337,0.321 0.489,0.473c0.304,0.304 0.557,0.54 0.759,0.742c0.422,0.405 0.641,0.624 0.641,0.624c0,0 -0.253,-0.185 -0.725,-0.523c-0.49,-0.337 -1.164,-0.843 -2.059,-1.467c-0.438,-0.321 -0.928,-0.658 -1.468,-1.03c-0.539,-0.371 -1.13,-0.759 -1.754,-1.181c-0.625,-0.421 -1.299,-0.843 -2.008,-1.299c-0.726,-0.455 -1.468,-0.911 -2.261,-1.383l-1.215,-0.709c-0.219,-0.118 -0.421,-0.236 -0.624,-0.354c-0.219,-0.101 -0.439,-0.22 -0.658,-0.338c-0.439,-0.219 -0.877,-0.472 -1.333,-0.708c-0.455,-0.237 -0.928,-0.456 -1.4,-0.692c-1.89,-0.894 -3.93101,-1.755 -6.09101,-2.49701c-0.27,-0.085 -0.54,-0.169 -0.81,-0.27c-0.27,-0.084 -0.557,-0.169 -0.827,-0.253c-0.286,-0.085 -0.54,-0.169 -0.826,-0.253c-0.27,-0.068 -0.557,-0.152 -0.844,-0.22c-0.287,-0.067 -0.574,-0.151 -0.86,-0.219l-0.861,-0.202c-0.574,-0.135 -1.164,-0.237 -1.738,-0.338c-2.345,-0.422 -4.75801,-0.658 -7.18701,-0.725c-2.43001,-0.085 -4.87601,0 -7.28902,0.151c-0.607,0.034 -1.198,0.068 -1.805,0.135c-0.608,0.034 -1.198,0.102 -1.789,0.135c-1.181,0.119 -2.362,0.22 -3.50901,0.321c-1.164,0.101 -2.295,0.219 -3.40801,0.304c-0.574,0.033 -1.131,0.05 -1.688,0.084c-0.556,0.017 -1.079,0.068 -1.636,0.068c-1.08,0.016 -2.143,0.05 -3.13801,0.05c-1.013,-0.017 -1.991,-0.034 -2.91901,-0.034c-1.873,-0.033 -3.57701,-0.084 -5.09601,-0.151c-1.518,-0.051 -2.83401,-0.135 -3.91401,-0.22c-1.097,-0.05 -1.94,-0.135 -2.53101,-0.168c-0.59,-0.051 -0.894,-0.085 -0.894,-0.085c0,0 0.304,-0.017 0.894,-0.05c0.658,-0.102 1.519,-0.152 2.59901,-0.22z" fill="#f2a900" id="element-id-99169"/>
          <path d="M214.25188,229.07255c-4.15001,-4.45401 -8.82402,-7.32202 -16.78803,-7.17001c-5.04401,0.118 -11.10202,1.501 -14.93103,4.04901c0,0 5.95501,-5.28101 15.74103,-5.24701c5.78701,0.033 12.03002,1.586 15.97803,8.36802z" fill="#f2a900" id="element-id-5224"/>
          <path d="M374.14921,235.18056c-3.98201,-5.72001 -10.62902,-9.46502 -18.13704,-9.46502c-7.50902,0 -15.28703,6.63001 -13.58203,5.51701c3.84601,-2.54801 8.52002,-4.05001 13.58203,-4.05001c7.28802,0 13.81803,3.10501 18.13704,7.99802z" fill="#f2a900" id="element-id-55730"/>
        </g>
      </g>
    </g>
  </g>
  <rect data-element-id="element-id-18611" stroke-width="2" fill="transparent" class="invisible-element-box grouping-element" x="32.53" y="239.725" width="420" height="25" data-element-name="isPrimaryText"/>
  <rect data-element-id="element-id-95281" stroke-width="2" fill="transparent" class="invisible-element-box grouping-element" x="131.53" y="192.725" width="221" height="38" data-element-name="isIcon"/>
  <rect data-element-id="element-id-49387" stroke-width="2" fill="transparent" class="invisible-element-box individual-element" x="131.53" y="192.725" width="221" height="38"/>
  <rect data-element-id="element-id-62079" stroke-width="2" fill="transparent" class="invisible-element-box individual-element" x="168.53" y="192.725" width="119" height="20"/>
  <rect data-element-id="element-id-99169" stroke-width="2" fill="transparent" class="invisible-element-box individual-element" x="278.53" y="212.725" width="75" height="17"/>
  <rect data-element-id="element-id-49326" stroke-width="2" fill="transparent" class="invisible-element-box individual-element" x="32.53" y="239.725" width="46" height="25"/>
  <rect data-element-id="element-id-29732" stroke-width="2" fill="transparent" class="invisible-element-box individual-element" x="319.53" y="239.725" width="46" height="25"/>
  <rect data-element-id="element-id-78741" stroke-width="2" fill="transparent" class="invisible-element-box individual-element" x="83.53" y="239.725" width="45" height="25"/>
  <rect data-element-id="element-id-15079" stroke-width="2" fill="transparent" class="invisible-element-box individual-element" x="135.53" y="239.725" width="45" height="25"/>
  <rect data-element-id="element-id-94117" stroke-width="2" fill="transparent" class="invisible-element-box individual-element" x="187.53" y="239.725" width="45" height="25"/>
  <rect data-element-id="element-id-29231" stroke-width="2" fill="transparent" class="invisible-element-box individual-element" x="267.53" y="239.725" width="45" height="25"/>
  <rect data-element-id="element-id-21208" stroke-width="2" fill="transparent" class="invisible-element-box individual-element" x="372.53" y="239.725" width="37" height="25"/>
  <rect data-element-id="element-id-76285" stroke-width="2" fill="transparent" class="invisible-element-box individual-element" x="415.53" y="239.725" width="37" height="25"/>
  <rect data-element-id="element-id-67873" stroke-width="2" fill="transparent" class="invisible-element-box individual-element" x="191.53" y="201.725" width="61" height="14"/>
  <rect data-element-id="element-id-48317" stroke-width="2" fill="transparent" class="invisible-element-box individual-element" x="131.53" y="205.725" width="55" height="10"/>
  <rect data-element-id="element-id-55730" stroke-width="2" fill="transparent" class="invisible-element-box individual-element" x="309.53" y="219.725" width="32" height="9"/>
  <rect data-element-id="element-id-5224" stroke-width="2" fill="transparent" class="invisible-element-box individual-element" x="150.53" y="214.725" width="32" height="8"/>
  <rect data-element-id="element-id-7109" stroke-width="2" fill="transparent" class="invisible-element-box individual-element" x="263.53" y="208.725" width="13" height="6"/>
</svg>