<svg xmlns="http://www.w3.org/2000/svg" width="24" height="24" viewBox="0 0 24 24" fill="none">
    <g clip-path="url(#clip0_1855_42)">
        <path
            d="M15.42 9.705L8.715 3L7.6575 4.0575L9.4425 5.8425L5.58 9.705C5.1375 10.1475 5.1375 10.86 5.58 11.295L9.705 15.42C9.9225 15.6375 10.215 15.75 10.5 15.75C10.785 15.75 11.0775 15.6375 11.295 15.42L15.42 11.295C15.8625 10.86 15.8625 10.1475 15.42 9.705ZM6.9075 10.5L10.5 6.9075L14.0925 10.5H6.9075ZM17.25 11.625C17.25 11.625 15.75 13.2525 15.75 14.25C15.75 15.075 16.425 15.75 17.25 15.75C18.075 15.75 18.75 15.075 18.75 14.25C18.75 13.2525 17.25 11.625 17.25 11.625ZM4.5 18H19.5V21H4.5V18Z"
            fill="#ffffff"></path>
    </g>
    <defs>
        <clipPath id="clip0_1855_42">
            <rect width="18" height="18" fill="white" transform="translate(3 3)"></rect>
        </clipPath>
    </defs>
</svg>