<svg xmlns="http://www.w3.org/2000/svg" width="24" height="24" viewBox="0 0 24 24" fill="none">
    <g clip-path="url(#clip0_1825_9292)">
        <path fill-rule="evenodd" clip-rule="evenodd"
            d="M11.1441 10.3023C11.2057 10.9427 10.3617 12.1341 9.99584 12.5202C9.26621 13.2887 8.59345 14.1299 7.47195 14.9963C6.66936 15.6161 6.46177 15.6921 5.49647 15.6782L5.46153 15.6765C5.09432 15.6765 4.72745 15.7634 4.39175 15.9376L3.88307 15.4107C3.81524 15.3405 3.7046 15.3405 3.63712 15.4107L2.82014 16.2562C2.75266 16.3268 2.75266 16.4414 2.82014 16.5116L3.32677 17.036C3.16355 17.3717 3.07617 17.7413 3.07123 18.1171L3.06986 18.154C3.06986 18.7877 3.30314 19.4221 3.77003 19.9053C4.23521 20.3871 4.84666 20.6287 5.4605 20.6298H5.46256C5.83285 20.6298 6.2028 20.5411 6.54056 20.3648L7.04684 20.8895C7.11467 20.9594 7.22531 20.9594 7.29314 20.8895L8.10977 20.0433C8.17759 19.9734 8.17759 19.8592 8.10977 19.7886L7.60109 19.2617C7.76928 18.914 7.8532 18.534 7.8532 18.1537C7.8532 17.1027 7.9039 16.8821 8.54515 16.0029C9.38234 14.8537 10.1719 14.1987 10.9002 13.4568C11.2722 13.0779 12.4231 12.2668 13.0411 12.2672L11.1441 10.3023ZM14.9398 2.88918C17.3497 4.26757 19.0374 5.99792 20.2754 8.41586C20.31 8.48221 20.3267 8.55636 20.2754 8.60958L19.6721 9.23438L14.1496 3.51398L14.7528 2.88918C14.8042 2.83596 14.8765 2.85334 14.9398 2.88918ZM15.3396 8.00182C15.777 8.45525 15.777 9.19003 15.3392 9.64347C14.9018 10.0965 14.1924 10.0969 13.7546 9.64347C13.3168 9.19003 13.3168 8.45489 13.7546 8.00182C14.1924 7.54838 14.9018 7.54838 15.3396 8.00182ZM19.2775 9.64347L18.9117 10.022L13.3888 4.30198L13.7546 3.92306L19.2775 9.64347ZM18.5167 10.4311L15.0186 14.0547C14.9683 14.1065 14.8823 14.1065 14.8316 14.0543L13.9944 13.1868L14.1907 12.9832C14.6507 12.5067 14.1972 12.3502 13.7389 11.8751L11.6003 9.66014C11.1417 9.18542 10.9885 8.71709 10.5302 9.19181L10.3336 9.39546L9.49572 8.52798C9.44536 8.47547 9.44434 8.38748 9.49572 8.33426L12.9938 4.71071L18.5167 10.4311ZM6.38538 18.1515C6.38538 18.6724 5.97775 19.0949 5.47455 19.0949C4.97169 19.0949 4.56406 18.6724 4.56406 18.1515C4.56406 17.6303 4.97169 17.2081 5.47455 17.2081C5.97775 17.2081 6.38538 17.6303 6.38538 18.1515Z"
            fill="#000000"></path>
    </g>
    <defs>
        <clipPath id="clip0_1825_9292">
            <rect width="17.5385" height="18.0865" fill="white"
                transform="translate(2.76953 2.85547)"></rect>
        </clipPath>
    </defs>
</svg>