<svg xmlns="http://www.w3.org/2000/svg" width="24" height="24" viewBox="0 0 24 24" fill="none">
    <g clip-path="url(#clip0_1825_9401)">
        <path
            d="M11.5 2C8.98044 2 6.56408 3.00089 4.78249 4.78249C3.00089 6.56408 2 8.98044 2 11.5C2.46708 24.0915 20.5377 24.0796 21 11.5C21 8.98044 19.9991 6.56408 18.2175 4.78249C16.4359 3.00089 14.0196 2 11.5 2ZM11.5 3.58333C12.9506 3.58439 14.373 3.98357 15.6124 4.73739C16.8517 5.49121 17.8604 6.57074 18.5284 7.85833L12.948 8.97458C11.9551 9.17418 10.9325 9.17418 9.93963 8.97458L4.4605 7.8805C5.1264 6.5871 6.13549 5.50195 7.37718 4.74398C8.61887 3.98601 10.0452 3.58446 11.5 3.58333ZM9.125 19.0525C7.66636 18.591 6.37216 17.7178 5.39814 16.538C4.42411 15.3583 3.81177 13.9221 3.63479 12.4025L6.72229 13.02C7.06439 13.0882 7.38723 13.231 7.66777 13.4383C7.9483 13.6457 8.17962 13.9124 8.34521 14.2194L8.83921 15.1322C9.02668 15.4789 9.1249 15.8669 9.125 16.2611V19.0525ZM13.875 19.0525V16.2611C13.8751 15.8663 13.9736 15.4777 14.1616 15.1306L14.6556 14.217C14.8215 13.9103 15.053 13.644 15.3334 13.4368C15.6139 13.2297 15.9366 13.0868 16.2785 13.0184L19.366 12.4009C19.1892 13.9209 18.5769 15.3575 17.6027 16.5376C16.6285 17.7177 15.334 18.591 13.875 19.0525ZM15.9682 11.466C15.3982 11.5792 14.8604 11.8169 14.3929 12.1621C13.9254 12.5072 13.5399 12.9512 13.2638 13.4625L12.7667 14.3761C12.4544 14.9553 12.2912 15.6031 12.2917 16.2611V19.3771C11.7652 19.4293 11.2348 19.4293 10.7083 19.3771V16.2611C10.7088 15.6031 10.5456 14.9553 10.2333 14.3761L9.73617 13.4633C9.46028 12.9518 9.07482 12.5075 8.60733 12.1623C8.13984 11.817 7.60186 11.5792 7.03183 11.466L3.61658 10.7828C3.65878 10.3075 3.74464 9.83708 3.87308 9.37754L9.63008 10.5286C10.8275 10.7693 12.0609 10.7693 13.2583 10.5286L19.1214 9.35617C19.2528 9.822 19.3405 10.2991 19.3834 10.7812L15.9682 11.466Z"
            fill="#000000"></path>
    </g>
    <defs>
        <clipPath id="clip0_1825_9401">
            <rect width="19" height="19" fill="white" transform="translate(2 2)"></rect>
        </clipPath>
    </defs>
</svg>