<svg xmlns="http://www.w3.org/2000/svg" width="24" height="24" viewBox="0 0 24 24" fill="none">
    <g clip-path="url(#clip0_1825_9385)">
        <path
            d="M19.0208 9.12533H18.625V8.72949C18.625 7.63858 17.7368 6.75033 16.6458 6.75033H14.6667V4.37533H17.0417C17.4787 4.37533 17.8333 4.02066 17.8333 3.58366C17.8333 3.14666 17.4787 2.79199 17.0417 2.79199H10.7083C10.2713 2.79199 9.91667 3.14666 9.91667 3.58366C9.91667 4.02066 10.2713 4.37533 10.7083 4.37533H13.0833V6.75033H11.0543C10.3473 6.75033 9.68233 7.06224 9.23029 7.60533L7.96283 9.12533H7.9375C6.84658 9.12533 5.95833 10.0136 5.95833 11.1045V12.292H3.58333V9.91699C3.58333 9.47999 3.22867 9.12533 2.79167 9.12533C2.35467 9.12533 2 9.47999 2 9.91699V16.2503C2 16.6873 2.35467 17.042 2.79167 17.042C3.22867 17.042 3.58333 16.6873 3.58333 16.2503V13.8753H5.95833V15.594C5.95833 16.2282 6.20533 16.8251 6.65421 17.274L8.10138 18.7211C8.54946 19.17 9.14638 19.417 9.78129 19.417H16.6458C17.6022 19.417 18.401 18.7362 18.5854 17.8337H19.0208C20.1117 17.8337 21 16.9454 21 15.8545V11.1045C21 10.0136 20.1117 9.12533 19.0208 9.12533ZM19.4167 15.8545C19.4167 16.073 19.2393 16.2503 19.0208 16.2503H17.8333C17.3963 16.2503 17.0417 16.605 17.0417 17.042V17.4378C17.0417 17.6563 16.8643 17.8337 16.6458 17.8337H9.78129C9.56992 17.8337 9.37042 17.7513 9.22079 17.6017L7.77363 16.1545C7.624 16.0049 7.54167 15.8062 7.54167 15.594V11.1045C7.54167 10.886 7.719 10.7087 7.9375 10.7087H8.33333C8.56846 10.7087 8.79092 10.6042 8.94133 10.4237L10.4463 8.61866C10.5967 8.43737 10.8184 8.33366 11.0543 8.33366H16.6458C16.8643 8.33366 17.0417 8.51099 17.0417 8.72949V9.91699C17.0417 10.354 17.3963 10.7087 17.8333 10.7087H19.0208C19.2393 10.7087 19.4167 10.886 19.4167 11.1045V15.8545Z"
            fill="#000000"></path>
    </g>
    <defs>
        <clipPath id="clip0_1825_9385">
            <rect width="19" height="19" fill="white" transform="translate(2 2)"></rect>
        </clipPath>
    </defs>
</svg>