<svg width="19" height="20" viewBox="0 0 19 20" fill="none" xmlns="http://www.w3.org/2000/svg">
    <path
        d="M16.1488 5.05304C15.8966 4.78761 15.5007 4.74847 15.2059 4.95992C14.0954 5.75671 8.52514 9.76339 7.92649 10.3935C7.05836 11.3074 7.05836 12.7943 7.92649 13.7081C8.36056 14.165 8.93078 14.3935 9.50093 14.3935C10.0711 14.3935 10.6413 14.165 11.0754 13.7081C11.674 13.078 15.4803 7.21453 16.2373 6.04554C16.4381 5.73527 16.4009 5.31855 16.1488 5.05304ZM10.0257 12.6032C9.73635 12.9079 9.26547 12.9079 8.97613 12.6032C8.68675 12.2987 8.68672 11.8032 8.97598 11.4985C9.20858 11.2566 10.7901 10.0693 12.7359 8.64562C11.3834 10.6938 10.2555 12.3585 10.0257 12.6032Z"
        fill="white"></path>
    <path
        d="M3.42263 15.6845L2.5064 16.155C1.83599 14.8955 1.48437 13.4898 1.48437 12.0508C1.48437 10.9964 1.66907 9.98664 2.00613 9.05535L3.05599 9.58543C3.15953 9.63769 3.26882 9.66246 3.37647 9.66246C3.65305 9.66246 3.91856 9.49898 4.04618 9.21891C4.22342 8.82988 4.06756 8.3632 3.69795 8.1766L2.66141 7.65324C3.94974 5.44152 6.17878 3.89953 8.75785 3.64914V4.82418C8.75785 5.25566 9.09013 5.60543 9.50004 5.60543C9.90995 5.60543 10.2422 5.25566 10.2422 4.82418V3.64855C11.1265 3.73328 11.9821 3.97031 12.7943 4.35625C13.1678 4.53379 13.6074 4.35883 13.7761 3.96566C13.9447 3.57238 13.7786 3.10969 13.405 2.93215C12.1742 2.34734 10.8604 2.05078 9.5 2.05078C6.96246 2.05078 4.57681 3.09094 2.78246 4.97969C0.988185 6.86848 0 9.37969 0 12.0508C0 14.0246 0.556566 15.9443 1.60954 17.6021C1.75138 17.8254 1.98587 17.9493 2.22701 17.9493C2.33663 17.9493 2.44766 17.9237 2.55197 17.8701L4.07346 17.0889C4.44188 16.8997 4.59484 16.432 4.41512 16.0442C4.2354 15.6564 3.79106 15.4954 3.42263 15.6845Z"
        fill="white"></path>
    <path
        d="M18.1629 7.94051C17.9942 7.54727 17.5548 7.37227 17.181 7.54989C16.8074 7.72743 16.6413 8.19012 16.81 8.58336C17.2784 9.67547 17.5158 10.8422 17.5158 12.051C17.5158 13.4922 17.1631 14.9002 16.4907 16.1611L15.5341 15.6816C15.1641 15.4961 14.7212 15.6614 14.5449 16.0511C14.3687 16.4406 14.5259 16.9068 14.8959 17.0923L16.4545 17.8736C16.5571 17.9249 16.6658 17.9495 16.7732 17.9495C17.0144 17.9495 17.249 17.8255 17.3906 17.6024C18.4436 15.9445 19.0002 14.0248 19.0002 12.051C19.0002 10.619 18.7185 9.23602 18.1629 7.94051Z"
        fill="white"></path>
</svg>