<?xml version="1.0" encoding="utf-8"?>
<svg viewBox="173.863 172.849 17.021 13.813" xmlns="http://www.w3.org/2000/svg">
    <path fill-rule="evenodd" clip-rule="evenodd"
        d="M 176.04 172.849 C 174.839 172.849 173.863 173.722 173.863 174.797 C 173.863 175.872 174.839 176.745 176.04 176.745 C 177.242 176.745 178.218 175.872 178.218 174.797 C 178.218 173.722 177.242 172.849 176.04 172.849 Z M 176.04 173.912 C 176.587 173.912 177.03 174.308 177.03 174.797 C 177.03 175.286 176.587 175.683 176.04 175.683 C 175.494 175.683 175.051 175.286 175.051 174.797 C 175.051 174.308 175.494 173.912 176.04 173.912 Z"
        fill="white" />
    <path fill-rule="evenodd" clip-rule="evenodd"
        d="M 176.04 182.766 C 174.839 182.766 173.863 183.639 173.863 184.714 C 173.863 185.789 174.839 186.662 176.04 186.662 C 177.242 186.662 178.218 185.789 178.218 184.714 C 178.218 183.639 177.242 182.766 176.04 182.766 Z M 176.04 183.829 C 176.587 183.829 177.03 184.225 177.03 184.714 C 177.03 185.203 176.587 185.6 176.04 185.6 C 175.494 185.6 175.051 185.203 175.051 184.714 C 175.051 184.225 175.494 183.829 176.04 183.829 Z"
        fill="white" />
    <path fill-rule="evenodd" clip-rule="evenodd"
        d="M 182.374 172.849 C 181.173 172.849 180.197 173.722 180.197 174.797 C 180.197 175.872 181.173 176.745 182.374 176.745 C 183.576 176.745 184.552 175.872 184.552 174.797 C 184.552 173.722 183.576 172.849 182.374 172.849 Z M 182.374 173.912 C 182.921 173.912 183.364 174.308 183.364 174.797 C 183.364 175.286 182.921 175.683 182.374 175.683 C 181.828 175.683 181.385 175.286 181.385 174.797 C 181.385 174.308 181.828 173.912 182.374 173.912 Z"
        fill="white" />
    <path fill-rule="evenodd" clip-rule="evenodd"
        d="M 182.374 182.766 C 181.173 182.766 180.197 183.639 180.197 184.714 C 180.197 185.789 181.173 186.662 182.374 186.662 C 183.576 186.662 184.552 185.789 184.552 184.714 C 184.552 183.639 183.576 182.766 182.374 182.766 Z M 182.374 183.829 C 182.921 183.829 183.364 184.225 183.364 184.714 C 183.364 185.203 182.921 185.6 182.374 185.6 C 181.828 185.6 181.385 185.203 181.385 184.714 C 181.385 184.225 181.828 183.829 182.374 183.829 Z"
        fill="white" />
    <path fill-rule="evenodd" clip-rule="evenodd"
        d="M 188.706 172.849 C 187.505 172.849 186.529 173.722 186.529 174.797 C 186.529 175.872 187.505 176.745 188.706 176.745 C 189.908 176.745 190.884 175.872 190.884 174.797 C 190.884 173.722 189.908 172.849 188.706 172.849 Z M 188.706 173.912 C 189.253 173.912 189.696 174.308 189.696 174.797 C 189.696 175.286 189.253 175.683 188.706 175.683 C 188.16 175.683 187.717 175.286 187.717 174.797 C 187.717 174.308 188.16 173.912 188.706 173.912 Z"
        fill="white" />
    <path fill-rule="evenodd" clip-rule="evenodd"
        d="M 188.706 182.766 C 187.505 182.766 186.529 183.639 186.529 184.714 C 186.529 185.789 187.505 186.662 188.706 186.662 C 189.908 186.662 190.884 185.789 190.884 184.714 C 190.884 183.639 189.908 182.766 188.706 182.766 Z M 188.706 183.829 C 189.253 183.829 189.696 184.225 189.696 184.714 C 189.696 185.203 189.253 185.6 188.706 185.6 C 188.16 185.6 187.717 185.203 187.717 184.714 C 187.717 184.225 188.16 183.829 188.706 183.829 Z"
        fill="white" />
    <path fill-rule="evenodd" clip-rule="evenodd"
        d="M 175.447 176.214 L 175.447 183.297 C 175.447 183.59 175.713 183.828 176.041 183.828 C 176.369 183.828 176.635 183.59 176.635 183.297 L 176.635 176.214 C 176.635 175.92 176.369 175.682 176.041 175.682 C 175.713 175.682 175.447 175.92 175.447 176.214 Z"
        fill="white" />
    <path fill-rule="evenodd" clip-rule="evenodd"
        d="M 181.779 176.214 L 181.779 183.297 C 181.779 183.59 182.045 183.828 182.373 183.828 C 182.701 183.828 182.967 183.59 182.967 183.297 L 182.967 176.214 C 182.967 175.92 182.701 175.682 182.373 175.682 C 182.045 175.682 181.779 175.92 181.779 176.214 Z"
        fill="white" />
    <path fill-rule="evenodd" clip-rule="evenodd"
        d="M 188.114 176.214 L 188.114 179.047 C 188.114 179.145 188.025 179.224 187.916 179.224 L 176.041 179.224 C 175.713 179.224 175.447 179.462 175.447 179.755 C 175.447 180.048 175.713 180.286 176.041 180.286 L 187.916 180.286 C 188.682 180.286 189.302 179.731 189.302 179.047 C 189.302 178.013 189.302 176.214 189.302 176.214 C 189.302 175.92 189.036 175.682 188.708 175.682 C 188.38 175.682 188.114 175.92 188.114 176.214 Z"
        fill="white" />
</svg>